<?xml version="1.0" encoding="utf-8"?>
<!-- Generator: Adobe Illustrator 23.0.4, SVG Export Plug-In . SVG Version: 6.00 Build 0)  -->
<!DOCTYPE svg PUBLIC "-//W3C//DTD SVG 1.1//EN" "http://www.w3.org/Graphics/SVG/1.1/DTD/svg11.dtd" [
	<!ENTITY ns_flows "http://ns.adobe.com/Flows/1.0/">
	<!ENTITY ns_extend "http://ns.adobe.com/Extensibility/1.0/">
	<!ENTITY ns_ai "http://ns.adobe.com/AdobeIllustrator/10.0/">
	<!ENTITY ns_graphs "http://ns.adobe.com/Graphs/1.0/">
	<!ENTITY ns_vars "http://ns.adobe.com/Variables/1.0/">
	<!ENTITY ns_imrep "http://ns.adobe.com/ImageReplacement/1.0/">
	<!ENTITY ns_sfw "http://ns.adobe.com/SaveForWeb/1.0/">
	<!ENTITY ns_custom "http://ns.adobe.com/GenericCustomNamespace/1.0/">
	<!ENTITY ns_adobe_xpath "http://ns.adobe.com/XPath/1.0/">
]>
<svg version="1.1" xmlns:x="&ns_extend;" xmlns:i="&ns_ai;" xmlns:graph="&ns_graphs;"
	 xmlns="http://www.w3.org/2000/svg" xmlns:xlink="http://www.w3.org/1999/xlink" xmlns:a="http://ns.adobe.com/AdobeSVGViewerExtensions/3.0/"
	 x="0px" y="0px" viewBox="0 0 1000 500" enable-background="new 0 0 1000 500" xml:space="preserve">
<metadata>
	<sfw  xmlns="&ns_sfw;">
		<slices></slices>
		<sliceSourceBounds  bottomLeftOrigin="true" height="7148" width="13229.165" x="-6985.621" y="-2650"></sliceSourceBounds>
	</sfw>
</metadata>
<g id="FILL-BACKGROUND">
	<rect fill="#FFFFFF" width="1000" height="500"/>
</g>
<g id="N-DIMENSIONS">
</g>
<g id="N-TEXT">
</g>
<g id="X-VPRT">
</g>
<g id="AG-DIAGRAM">
	<g id="POLYLINE_4640_">
		<g>
			<g>
				
					<line fill="none" stroke="#F368E0" stroke-width="3" stroke-linecap="round" stroke-linejoin="round" x1="72.244" y1="367.912" x2="74.244" y2="367.912"/>
				
					<line fill="none" stroke="#F368E0" stroke-width="3" stroke-linecap="round" stroke-linejoin="round" stroke-dasharray="4.0178,7.0312" x1="81.275" y1="367.912" x2="895.388" y2="367.912"/>
				
					<line fill="none" stroke="#F368E0" stroke-width="3" stroke-linecap="round" stroke-linejoin="round" x1="898.904" y1="367.912" x2="900.904" y2="367.912"/>
			</g>
		</g>
	</g>
</g>
<g id="AG-DETAIL">
	<g id="POLYLINE_6140_">
		<path fill="none" stroke="#F368E0" stroke-width="2" stroke-linecap="round" stroke-linejoin="round" stroke-miterlimit="10" d="
			M258.675,332.916c-0.943-0.008-1.679-0.884-1.5-1.816c0.234-1.219,1.373-1.239,2.362-1.239c1.099,0,2.213-0.052,3.311,0
			c0.417,0.02,0.791,0.111,1.108,0.402c0.72,0.66,0.627,1.857-0.187,2.398c-0.476,0.316-1.03,0.256-1.574,0.256
			C261.021,332.916,259.848,332.916,258.675,332.916z"/>
	</g>
	<g id="POLYLINE_6139_">
		<path fill="none" stroke="#F368E0" stroke-width="2" stroke-linecap="round" stroke-linejoin="round" stroke-miterlimit="10" d="
			M82.891,321.906c-1.304-0.023-0.981-1.76-0.981-2.584c0-1.157,0-2.314,0-3.471c0-0.401-0.057-0.825,0.204-1.164
			c0.52-0.675,2.289-0.64,2.68,0.172c0.217,0.45,0.097,1.118,0.097,1.59c0,1.166,0,2.331,0,3.497c0,0.476,0.117,1.13-0.183,1.549
			C84.297,322.069,83.494,321.906,82.891,321.906z"/>
	</g>
	<g id="POLYLINE_6138_">
		<path fill="none" stroke="#F368E0" stroke-width="2" stroke-linecap="round" stroke-linejoin="round" stroke-miterlimit="10" d="
			M355.5,332.916c-0.943-0.008-1.679-0.884-1.5-1.816c0.234-1.219,1.373-1.239,2.362-1.239c1.099,0,2.213-0.052,3.311,0
			c0.417,0.02,0.791,0.111,1.108,0.402c0.72,0.66,0.627,1.857-0.187,2.398c-0.476,0.316-1.03,0.256-1.574,0.256
			C357.847,332.916,356.674,332.916,355.5,332.916z"/>
	</g>
	<g id="POLYLINE_6137_">
		<path fill="none" stroke="#F368E0" stroke-width="2" stroke-linecap="round" stroke-linejoin="round" stroke-miterlimit="10" d="
			M611.524,196.753c0-3.216,0-6.432,0-9.648c0-2.072,0-4.144,0-6.215c0-0.346-0.196-1.897,0.061-2.087c0.129-0.096,0.703,0,0.858,0
			c0.579,0,1.158,0,1.737,0c1.804,0,3.609,0,5.413,0c4.519,0,9.038,0,13.557,0c1.854,0,3.707,0,5.561,0c0.616,0,1.232,0,1.848,0
			c0.213,0,0.807-0.111,0.994,0c0.314,0.186,0.123,1.451,0.123,1.867c0,1.978,0,3.956,0,5.933c0,2.23,0,4.459,0,6.689
			c0,0.79,0,1.58,0,2.371c0,0.162,0.116,0.948,0,1.072c-0.181,0.193-1.464,0.019-1.73,0.019c-1.599,0-3.198,0-4.797,0
			c-7.707,0-15.414,0-23.122,0C611.859,196.753,611.691,196.753,611.524,196.753z"/>
	</g>
	<g id="POLYLINE_6136_">
		<path fill="none" stroke="#F368E0" stroke-width="2" stroke-linecap="round" stroke-linejoin="round" stroke-miterlimit="10" d="
			M96.846,331.21c0-2.493,0-4.987,0-7.48c0-5.93,0-11.859,0-17.789c0-7.226,0-14.452,0-21.678c0-6.222,0-12.444,0-18.666
			c0-2.045,0-4.09,0-6.135c0-0.643,0-1.286,0-1.929c0-0.21-0.112-0.827,0-1.011c0.015-0.024,0-0.097,0-0.128
			c0,0.149,1.137,0.731,1.258,0.809c1.099,0.707,2.198,1.413,3.298,2.12c3.57,2.295,7.14,4.59,10.71,6.885
			c7.381,4.745,14.762,9.49,22.144,14.235c0.812,0.522,1.624,1.044,2.437,1.566c0.357,0.229,0.344,0.17,0.401,0.528
			c0.117,0.733,0,1.584,0,2.325c0,1.474,0,2.948,0,4.422c0,9.167,0,18.335,0,27.502c0,4.301,0,8.603,0,12.904
			c0,1.501,0,3.002,0,4.503c0,0.786,0.097,1.644,0,2.425c-0.013,0.105,0,0.22,0,0.326c-4.541-0.647-9.082-1.294-13.624-1.941
			c-7.229-1.03-14.457-2.06-21.686-3.09C100.139,331.679,98.493,331.445,96.846,331.21z"/>
	</g>
	<g id="POLYLINE_6135_">
		<path fill="none" stroke="#F368E0" stroke-width="2" stroke-linecap="round" stroke-linejoin="round" stroke-miterlimit="10" d="
			M143.257,314.748c1.51,0,3.02,0,4.53,0c4.008,0,8.016,0,12.024,0c5.654,0,11.308,0,16.962,0c6.525,0,13.05,0,19.575,0
			c6.523,0,13.045,0,19.568,0c5.753,0,11.506,0,17.259,0c4.117,0,8.234,0,12.35,0c1.2,0,2.4,0,3.6,0c0.227,0,1.298-0.161,1.478,0
			c0.076,0.068,0.017,0.486,0.017,0.597c0,0.821,0,1.642,0,2.464c0,2.81,0,5.619,0,8.429c0,5.502,0,11.003,0,16.505
			c0,0.339,0,0.678,0,1.017"/>
	</g>
	<g id="POLYLINE_6134_">
		<path fill="none" stroke="#F368E0" stroke-width="2" stroke-linecap="round" stroke-linejoin="round" stroke-miterlimit="10" d="
			M194.246,343.759c-0.718-0.033-0.981-1.423-1.108-1.971c-0.258-1.119-0.361-2.277-0.403-3.423
			c-0.033-0.906-0.082-1.903,0.896-2.333c0.302-0.133,0.604-0.127,0.926-0.129c0.853-0.006,1.707,0,2.56,0
			c1.805,0,3.625-0.07,5.428,0c0.736,0.029,1.394,0.391,1.588,1.152c0.275,1.079-0.014,2.549-0.171,3.635
			c-0.118,0.812-0.261,1.696-0.642,2.434c-0.2,0.388-0.381,0.582-0.8,0.635c-0.858,0.107-1.797,0-2.66,0
			C197.989,343.759,196.117,343.759,194.246,343.759z"/>
	</g>
	<g id="POLYLINE_6133_">
		<path fill="none" stroke="#F368E0" stroke-width="2" stroke-linecap="round" stroke-linejoin="round" stroke-miterlimit="10" d="
			M102.544,174.41c0,3.305,0,6.61,0,9.915c0,1.714-0.285,3.728,0.267,5.399c0.769,2.325,2.929,3.618,5.302,3.624
			c7.057,0.016,14.114,0,21.171,0c1.25,0,2.486,0.08,3.664-0.42c1.116-0.473,2.05-1.334,2.614-2.408
			c0.625-1.19,0.605-2.421,0.605-3.728c0-3.816,0-7.632,0-11.447c0-0.312,0-0.624,0-0.936"/>
	</g>
	<g id="POLYLINE_6132_">
		<path fill="none" stroke="#F368E0" stroke-width="2" stroke-linecap="round" stroke-linejoin="round" stroke-miterlimit="10" d="
			M710.042,207.654c1.931,0,3.862,0,5.794,0c1.399,0,2.799,0,4.198,0c0.505,0,1.009,0,1.514,0c0.146,0,0.721-0.091,0.848,0
			c0.164,0.119,0.073,0.651,0.073,0.898c0,0.625,0,1.251,0,1.876c0,0-5.435,0-5.794,0c-1.399,0-2.799,0-4.198,0
			c-0.505,0-1.009,0-1.514,0c-0.146,0-0.721,0.091-0.848,0c-0.164-0.119-0.073-0.651-0.073-0.898
			C710.042,208.904,710.042,208.279,710.042,207.654z"/>
	</g>
	<g id="POLYLINE_6131_">
		<path fill="none" stroke="#F368E0" stroke-width="2" stroke-linecap="round" stroke-linejoin="round" stroke-miterlimit="10" d="
			M691.177,276.199c0-4.415,0-8.83,0-13.245c0-1.445-0.055-2.903,0.002-4.347c0.026-0.656,0.183-1.295,0.488-1.878
			c0.612-1.166,1.756-2,3.054-2.227c0.858-0.15,1.779-0.064,2.643-0.064c2.631,0,5.262,0,7.892,0c2.518,0,5.035,0,7.553,0
			c0.764,0,1.568-0.066,2.321,0.099c1.286,0.282,2.393,1.165,2.954,2.356c0.273,0.579,0.393,1.194,0.408,1.831
			c0.04,1.657,0,3.321,0,4.978c0,2.849,0,5.699,0,8.548c0,1.014,0,2.028,0,3.042c0,0.173,0.086,0.805-0.034,0.905
			c-0.162,0.134-1.025,0-1.224,0c-0.889,0-1.778,0-2.667,0c-2.655,0-5.311,0-7.966,0c-4.851,0-9.702,0-14.552,0
			C691.758,276.199,691.467,276.199,691.177,276.199z"/>
	</g>
	<g id="POLYLINE_6130_">
		<path fill="none" stroke="#F368E0" stroke-width="2" stroke-linecap="round" stroke-linejoin="round" stroke-miterlimit="10" d="
			M556.995,332.916c-0.943-0.008-1.679-0.884-1.5-1.816c0.234-1.219,1.373-1.239,2.362-1.239c1.099,0,2.213-0.052,3.311,0
			c0.417,0.02,0.791,0.111,1.108,0.402c0.72,0.66,0.627,1.857-0.187,2.398c-0.476,0.316-1.03,0.256-1.574,0.256
			C559.341,332.916,558.168,332.916,556.995,332.916z"/>
	</g>
	<g id="POLYLINE_6129_">
		<path fill="none" stroke="#F368E0" stroke-width="2" stroke-linecap="round" stroke-linejoin="round" stroke-miterlimit="10" d="
			M760.759,334.108c-0.943-0.008-1.679-0.884-1.5-1.816c0.234-1.219,1.373-1.239,2.362-1.239c1.099,0,2.213-0.052,3.311,0
			c0.417,0.02,0.791,0.111,1.108,0.402c0.72,0.66,0.627,1.857-0.187,2.398c-0.476,0.316-1.03,0.256-1.574,0.256
			C763.106,334.108,761.932,334.108,760.759,334.108z"/>
	</g>
	<g id="POLYLINE_6128_">
		
			<line fill="none" stroke="#F368E0" stroke-width="2" stroke-linecap="round" stroke-linejoin="round" stroke-miterlimit="10" x1="884.602" y1="327.638" x2="897.57" y2="327.638"/>
	</g>
	<g id="POLYLINE_6127_">
		
			<line fill="none" stroke="#F368E0" stroke-width="2" stroke-linecap="round" stroke-linejoin="round" stroke-miterlimit="10" x1="887.82" y1="322.198" x2="897.831" y2="322.198"/>
	</g>
</g>
<g id="AG-TRANSPORT">
	<g id="POLYLINE_2694_">
		
			<line fill="none" stroke="#F368E0" stroke-width="2.25" stroke-linecap="round" stroke-linejoin="round" stroke-miterlimit="10" x1="878.216" y1="293.941" x2="901.517" y2="293.941"/>
	</g>
	<g id="POLYLINE_2693_">
		
			<line fill="none" stroke="#F368E0" stroke-width="2.25" stroke-linecap="round" stroke-linejoin="round" stroke-miterlimit="10" x1="878.216" y1="204.246" x2="890.882" y2="204.246"/>
	</g>
	<g id="POLYLINE_2692_">
		
			<path fill="none" stroke="#F368E0" stroke-width="2.25" stroke-linecap="round" stroke-linejoin="round" stroke-miterlimit="10" d="
			M91.623,244.756c1.784,1.152,3.568,2.303,5.352,3.455c4.256,2.748,8.513,5.496,12.769,8.244c5.086,3.283,10.171,6.566,15.257,9.85
			c4.271,2.758,8.543,5.515,12.814,8.273c1.317,0.85,2.634,1.7,3.951,2.551c0.333,0.215,1.295,0.602,1.492,0.963
			c0.176,0.323,0.001,1.234,0.001,1.589c0,1.481,0,2.963,0,4.444c0,4.925,0,9.85,0,14.775c0,6.077,0,12.155,0,18.232
			c0,5.378,0,10.755,0,16.133c0,2.915,0,5.829,0,8.744c0,0.134,0,0.269,0,0.403"/>
	</g>
	<g id="POLYLINE_2691_">
		
			<line fill="none" stroke="#F368E0" stroke-width="2.25" stroke-linecap="round" stroke-linejoin="round" stroke-miterlimit="10" x1="147.887" y1="174.487" x2="147.887" y2="278.091"/>
	</g>
	<g id="POLYLINE_2690_">
		
			<line fill="none" stroke="#F368E0" stroke-width="2.25" stroke-linecap="round" stroke-linejoin="round" stroke-miterlimit="10" x1="91.623" y1="340.382" x2="91.623" y2="174.392"/>
	</g>
	<g id="POLYLINE_2689_">
		
			<line fill="none" stroke="#F368E0" stroke-width="2.25" stroke-linecap="round" stroke-linejoin="round" stroke-miterlimit="10" x1="89.126" y1="340.056" x2="89.126" y2="164.639"/>
	</g>
	<g id="POLYLINE_2688_">
		
			<path fill="none" stroke="#F368E0" stroke-width="2.25" stroke-linecap="round" stroke-linejoin="round" stroke-miterlimit="10" d="
			M883.722,197.961c-1.135,0.006-0.894-1.421-0.894-2.142c0-0.762-0.394-2.526,0.698-2.787c0.417-0.099,0.941-0.001,1.36,0.009
			c1.211,0.027,2.422,0.054,3.633,0.082c8.125,0.182,16.249,0.365,24.374,0.547c2.446,0.055,4.892,0.096,7.337,0.165
			c0.493,0.014,0.972,0.084,1.144,0.641c0.155,0.501,0.114,1.325,0.032,1.83c-0.056,0.345-0.213,0.633-0.557,0.77
			c-0.393,0.156-0.948,0.073-1.356,0.082c-1.205,0.027-2.409,0.054-3.614,0.081c-3.877,0.087-7.753,0.174-11.63,0.261
			c-6.723,0.151-13.446,0.302-20.169,0.453C883.961,197.955,883.842,197.958,883.722,197.961z"/>
	</g>
	<g id="POLYLINE_2687_">
		
			<path fill="none" stroke="#F368E0" stroke-width="2.25" stroke-linecap="round" stroke-linejoin="round" stroke-miterlimit="10" d="
			M465.589,289.336c-1.52,0-3.04,0-4.56,0c-0.297,0-1.693,0.207-1.916,0c-0.079-0.073-0.023-0.475-0.023-0.596
			c0-3.551,0-7.102,0-10.653c0-1.419,0-2.838,0-4.257c0-0.23-0.045-0.345,0.088-0.434c0.124-0.082,0.601,0,0.745,0
			c0.474,0,0.948,0,1.422,0c0.988,0,1.976,0,2.964,0c0.178,0,1.149,0.133,1.279-0.002c0.09-0.094,0-0.722,0-0.843
			c0-5.069,0-10.138,0-15.207c0-8.101,0-16.203,0-24.304c0-6.762,0-13.524,0-20.285c0-0.966,0-1.932,0-2.899
			c0-0.512,0.1-1.141,0-1.645c-0.067-0.34,0.088-0.179-0.212-0.274c-0.583-0.186-1.542,0-2.148,0c-7.213,0-14.426,0-21.639,0
			c-3.543,0-7.087,0-10.63,0c-1.11,0-2.22,0-3.33,0c-0.161,0-1.049-0.122-1.17,0c-0.173,0.175,0,1.402,0,1.63
			c0,1.502,0,3.005,0,4.507c0,5.337,0,10.673,0,16.01c0,7.371,0,14.743,0,22.114c0,8.311,0,16.622,0,24.932
			c0,7.954,0,15.909,0,23.863c0,6.492,0,12.984,0,19.477c0,3.812,0,7.625,0,11.437c0,0.223-0.168,1.419,0,1.589
			c0.13,0.131,1.058,0,1.233,0c1.126,0,2.253,0,3.379,0c7.666,0,15.332,0,22.997,0c3.081,0,6.162,0,9.244,0
			c0.542,0,1.58,0.208,2.09,0c0.258-0.105,0.185-0.046,0.185-0.438c0-5.869,0-11.737,0-17.606c0-7.398,0-14.795,0-22.193
			C465.589,291.951,465.589,290.643,465.589,289.336z"/>
	</g>
	<g id="POLYLINE_2686_">
		
			<path fill="none" stroke="#F368E0" stroke-width="2.25" stroke-linecap="round" stroke-linejoin="round" stroke-miterlimit="10" d="
			M378.383,289.336c1.52,0,3.04,0,4.56,0c0.297,0,1.693,0.207,1.916,0c0.079-0.073,0.023-0.475,0.023-0.596
			c0-3.551,0-7.102,0-10.653c0-1.419,0-2.838,0-4.257c0-0.23,0.045-0.345-0.088-0.434c-0.124-0.082-0.601,0-0.745,0
			c-0.474,0-0.948,0-1.422,0c-0.988,0-1.976,0-2.964,0c-0.178,0-1.149,0.133-1.279-0.002c-0.09-0.094,0-0.722,0-0.843
			c0-5.069,0-10.138,0-15.207c0-8.101,0-16.203,0-24.304c0-6.762,0-13.524,0-20.285c0-0.966,0-1.932,0-2.899
			c0-0.512-0.1-1.141,0-1.645c0.067-0.34-0.088-0.179,0.212-0.274c0.583-0.186,1.542,0,2.148,0c7.213,0,14.426,0,21.639,0
			c3.543,0,7.087,0,10.63,0c1.11,0,2.22,0,3.33,0c0.161,0,1.049-0.122,1.17,0c0.173,0.175,0,1.402,0,1.63c0,1.502,0,3.005,0,4.507
			c0,5.337,0,10.673,0,16.01c0,7.371,0,14.743,0,22.114c0,8.311,0,16.622,0,24.932c0,7.954,0,15.909,0,23.863
			c0,6.492,0,12.984,0,19.477c0,3.812,0,7.625,0,11.437c0,0.223,0.168,1.419,0,1.589c-0.13,0.131-1.058,0-1.233,0
			c-1.126,0-2.253,0-3.379,0c-7.666,0-15.332,0-22.997,0c-3.081,0-6.162,0-9.244,0c-0.542,0-1.58,0.208-2.09,0
			c-0.258-0.105-0.185-0.046-0.185-0.438c0-5.869,0-11.737,0-17.606c0-7.398,0-14.795,0-22.193
			C378.383,291.951,378.383,290.643,378.383,289.336z"/>
	</g>
	<g id="POLYLINE_2685_">
		
			<line fill="none" stroke="#F368E0" stroke-width="2.25" stroke-linecap="round" stroke-linejoin="round" stroke-miterlimit="10" x1="143.257" y1="278.091" x2="374.271" y2="278.091"/>
	</g>
	<g id="POLYLINE_2684_">
		
			<line fill="none" stroke="#F368E0" stroke-width="2.25" stroke-linecap="round" stroke-linejoin="round" stroke-miterlimit="10" x1="423.828" y1="342.325" x2="469.702" y2="342.325"/>
	</g>
	<g id="POLYLINE_2683_">
		
			<line fill="none" stroke="#F368E0" stroke-width="2.25" stroke-linecap="round" stroke-linejoin="round" stroke-miterlimit="10" x1="374.271" y1="342.325" x2="420.145" y2="342.325"/>
	</g>
	<g id="POLYLINE_2682_">
		
			<path fill="none" stroke="#F368E0" stroke-width="2.25" stroke-linecap="round" stroke-linejoin="round" stroke-miterlimit="10" d="
			M420.145,204.246c0.558,0,1.116,0,1.674,0c0.323,0,1.727-0.214,1.97,0c0.066,0.058,0.006,0.124,0.039,0.233
			c0.163,0.536,0,1.381,0,1.935c0,3.022,0,6.045,0,9.067c0,4.835,0,9.67,0,14.505c0,6.124,0,12.248,0,18.372
			c0,6.832,0,13.663,0,20.495c0,6.975,0,13.949,0,20.924c0,6.553,0,13.105,0,19.658c0,5.546,0,11.093,0,16.639
			c0,4.022,0,8.043,0,12.065c0,1.257,0,2.514,0,3.771c0,0.574,0.152,1.393,0,1.951c-0.016,0.059,0.03,0.203-0.01,0.241
			c-0.203,0.194-1.556,0-1.832,0c-0.274,0-1.631,0.192-1.832,0c-0.111-0.106-0.01-0.845-0.01-0.996c0-2.496,0-4.991,0-7.487
			c0-4.446,0-8.892,0-13.338c0-5.869,0-11.738,0-17.607c0-6.713,0-13.426,0-20.139c0-6.964,0-13.928,0-20.892
			c0-6.708,0-13.417,0-20.125c0-5.86,0-11.72,0-17.58c0-4.447,0-8.893,0-13.34c0-2.469,0-4.937,0-7.406
			C420.145,204.879,420.145,204.562,420.145,204.246z"/>
	</g>
	<g id="POLYLINE_2681_">
		
			<path fill="none" stroke="#F368E0" stroke-width="2.25" stroke-linecap="round" stroke-linejoin="round" stroke-miterlimit="10" d="
			M109.013,164.672c0-2.186,0-4.372,0-6.558c0-0.266-0.16-1.514,0.033-1.683c0.143-0.126,0.962,0,1.144,0c4.913,0,9.826,0,14.739,0
			c4.125,0,8.251-0.027,12.376,0c1.273,0.008,2.434,0.361,3.474,1.108c1.988,1.429,3.226,3.746,4.165,5.948
			c0.176,0.412,0.339,0.829,0.501,1.247"/>
	</g>
	<g id="POLYLINE_2680_">
		
			<path fill="none" stroke="#F368E0" stroke-width="2.25" stroke-linecap="round" stroke-linejoin="round" stroke-miterlimit="10" d="
			M661.213,165.608c0.325-0.479,0.649-0.959,0.974-1.438c0.098-0.145,0.232-0.46,0.39-0.532c0.164-0.074,0.541,0.001,0.717,0.001
			c1.335,0.002,2.669,0.005,4.004,0.007c5.081,0.009,10.162,0.018,15.243,0.027c6.374,0.011,12.749,0.023,19.123,0.034
			c5.362,0.009,10.723,0.019,16.085,0.028c1.571,0.003,3.142,0.006,4.713,0.008c0.377,0.001,0.816-0.061,1.189,0.002
			c0.398,0.067,0.327,0.09,0.626,0.532c0.325,0.479,0.649,0.959,0.974,1.438c0-0.002-6.03-0.01-6.36-0.011
			c-5.093-0.009-10.185-0.017-15.278-0.026c-6.163-0.01-12.327-0.021-18.49-0.031c-5.332-0.009-10.665-0.018-15.997-0.027
			c-2.6-0.004-5.2-0.009-7.799-0.013C661.321,165.608,661.213,165.608,661.213,165.608z"/>
	</g>
	<g id="POLYLINE_2679_">
		
			<path fill="none" stroke="#F368E0" stroke-width="2.25" stroke-linecap="round" stroke-linejoin="round" stroke-miterlimit="10" d="
			M303.844,165.002c0.325-0.479,0.649-0.959,0.974-1.438c0.098-0.145,0.233-0.46,0.39-0.532c0.164-0.074,0.541,0.001,0.717,0.001
			c1.335,0.002,2.669,0.005,4.004,0.007c5.081,0.009,10.162,0.018,15.243,0.027c6.375,0.011,12.749,0.023,19.124,0.034
			c5.362,0.009,10.723,0.019,16.085,0.028c1.571,0.003,3.142,0.006,4.713,0.008c0.377,0.001,0.816-0.061,1.189,0.002
			c0.398,0.068,0.327,0.09,0.626,0.532c0.325,0.479,0.649,0.959,0.974,1.438c-2.12-0.004-4.24-0.007-6.36-0.011
			c-5.093-0.009-10.185-0.017-15.278-0.026c-6.163-0.01-12.327-0.021-18.49-0.031c-5.332-0.009-10.665-0.018-15.997-0.027
			c-2.6-0.004-5.2-0.009-7.799-0.013C303.92,165.002,303.882,165.002,303.844,165.002z"/>
	</g>
	<g id="POLYLINE_2678_">
		
			<path fill="none" stroke="#F368E0" stroke-width="2.25" stroke-linecap="round" stroke-linejoin="round" stroke-miterlimit="10" d="
			M153.266,275.209c0-3.063,0-6.127,0-9.19c0-7.023,0-14.047,0-21.07c0-7.733,0-15.466,0-23.199c0-5.192,0-10.384,0-15.577
			c0-0.303-0.188-1.732,0.033-1.927c0.093-0.082,0.633,0,0.75,0c0.557,0,1.115,0,1.672,0c4.709,0,9.418,0,14.127,0
			c7.251,0,14.503,0,21.754,0c7.894,0,15.787,0,23.681,0c6.636,0,13.272,0,19.907,0c3.478,0,6.956,0,10.434,0
			c0.612,0,0.461,0.08,0.461,0.706c0,1.612,0,3.224,0,4.836c0,6.371,0,12.742,0,19.114c0,7.859,0,15.718,0,23.577
			c0,6.082,0,12.164,0,18.246c0,1.357,0.136,2.794,0,4.145c-0.053,0.527-0.248,0.339-0.818,0.339c-3.804,0-7.609,0-11.413,0
			c-6.808,0-13.617,0-20.425,0c-7.912,0-15.825,0-23.737,0c-7.116,0-14.232,0-21.348,0c-4.42,0-8.84,0-13.259,0
			C154.478,275.209,153.872,275.209,153.266,275.209z"/>
	</g>
	<g id="POLYLINE_2677_">
		
			<path fill="none" stroke="#F368E0" stroke-width="2.25" stroke-linecap="round" stroke-linejoin="round" stroke-miterlimit="10" d="
			M257.356,275.209c0-3.591,0-7.182,0-10.773c0-7.898,0-15.797,0-23.695c0-8.104,0-16.207,0-24.311c0-2.779,0-5.557,0-8.336
			c0-0.86,0-1.719,0-2.579c0-0.222-0.135-1.013,0-1.2c0.153-0.212,1.178-0.07,1.473-0.07c1.684,0,3.368,0,5.052,0
			c6.109,0,12.218,0,18.327,0c8.229,0,16.457,0,24.686,0c8.545,0,17.09,0,25.635,0c6.953,0,13.906,0,20.86,0
			c3.614,0,7.229,0,10.843,0c0.661,0,0.473,0.147,0.473,0.822c0,1.871,0,3.741,0,5.612c0,7.276,0,14.552,0,21.828
			c0,8.424,0,16.848,0,25.272c0,5.403,0,10.806,0,16.208c0,0.203,0.13,1.001,0,1.168c-0.067,0.086-0.126,0.024-0.273,0.053
			c-1.037,0.206-2.331,0-3.383,0c-5.318,0-10.637,0-15.955,0c-7.91,0-15.82,0-23.73,0c-8.589,0-17.178,0-25.767,0
			c-7.542,0-15.083,0-22.625,0c-4.575,0-9.151,0-13.726,0C258.616,275.209,257.986,275.209,257.356,275.209z"/>
	</g>
	<g id="POLYLINE_2676_">
		
			<path fill="none" stroke="#F368E0" stroke-width="2.25" stroke-linecap="round" stroke-linejoin="round" stroke-miterlimit="10" d="
			M558.213,275.209c0-3.024,0-6.048,0-9.073c0-6.923,0-13.847,0-20.77c0-7.674,0-15.348,0-23.022c0-5.276,0-10.552,0-15.829
			c0-0.58,0-1.159,0-1.739c0-0.08-0.055-0.473,0.004-0.531c0.063-0.062,0.497,0,0.58,0c0.502,0,1.004,0,1.507,0
			c4.552,0,9.104,0,13.655,0c7.105,0,14.21,0,21.314,0c7.845,0,15.69,0,23.535,0c6.597,0,13.194,0,19.791,0
			c3.471,0,6.942,0,10.414,0c0.612,0,0.469,0.061,0.469,0.687c0,1.586,0,3.172,0,4.759c0,6.242,0,12.483,0,18.725
			c0,7.808,0,15.616,0,23.424c0,6.145,0,12.29,0,18.436c0,1.478,0,2.956,0,4.434c0,0.609-0.006,0.499-0.614,0.499
			c-3.635,0-7.269,0-10.904,0c-6.654,0-13.307,0-19.961,0c-7.853,0-15.707,0-23.56,0c-7.067,0-14.134,0-21.201,0
			c-4.402,0-8.805,0-13.207,0C559.427,275.209,558.82,275.209,558.213,275.209z"/>
	</g>
	<g id="POLYLINE_2675_">
		
			<path fill="none" stroke="#F368E0" stroke-width="2.25" stroke-linecap="round" stroke-linejoin="round" stroke-miterlimit="10" d="
			M480.303,275.209c0-2.196,0-4.392,0-6.588c0-5.328,0-10.656,0-15.984c0-6.572,0-13.143,0-19.715c0-5.926,0-11.852,0-17.778
			c0-3.398,0-6.795,0-10.193c0-0.51-0.151-0.622,0.273-0.706c0.972-0.192,2.183,0,3.17,0c4.801,0,9.602,0,14.403,0
			c6.493,0,12.986,0,19.479,0c6.002,0,12.003,0,18.005,0c3.314,0,6.628,0,9.942,0c0.519,0,0.454-0.035,0.454,0.483
			c0,1.149,0,2.299,0,3.448c0,4.747,0,9.495,0,14.242c0,6.445,0,12.89,0,19.335c0,6.254,0,12.507,0,18.761c0,4.173,0,8.347,0,12.52
			c0,0.495,0,0.991,0,1.486c0,0.104,0.072,0.578,0,0.661c-0.149,0.172-1.264,0.026-1.498,0.026c-4.036,0-8.071,0-12.107,0
			c-6.279,0-12.557,0-18.836,0c-6.325,0-12.65,0-18.975,0c-4.175,0-8.35,0-12.524,0
			C481.494,275.209,480.899,275.209,480.303,275.209z"/>
	</g>
	<g id="POLYLINE_2674_">
		
			<path fill="none" stroke="#F368E0" stroke-width="2.25" stroke-linecap="round" stroke-linejoin="round" stroke-miterlimit="10" d="
			M715.908,334.721c-0.018-2.116-2.728-3.142-4.114-1.513c-1.377,1.618,0.056,4.159,2.153,3.818
			C715.071,336.843,715.898,335.852,715.908,334.721z"/>
	</g>
	<g id="POLYLINE_2673_">
		
			<path fill="none" stroke="#F368E0" stroke-width="2.25" stroke-linecap="round" stroke-linejoin="round" stroke-miterlimit="10" d="
			M720.998,334.721c-0.004-3.102-2-5.945-4.923-6.991c-2.92-1.044-6.272-0.119-8.241,2.278c-1.969,2.398-2.224,5.865-0.632,8.527
			c1.593,2.661,4.773,4.072,7.815,3.469c3.03-0.601,5.427-3.103,5.894-6.157C720.969,335.474,720.998,335.098,720.998,334.721z"/>
	</g>
	<g id="POLYLINE_2672_">
		
			<path fill="none" stroke="#F368E0" stroke-width="2.25" stroke-linecap="round" stroke-linejoin="round" stroke-miterlimit="10" d="
			M724.257,334.721c-0.008-4.464-2.876-8.552-7.083-10.058c-4.201-1.504-9.025-0.17-11.857,3.278
			c-2.833,3.45-3.2,8.439-0.909,12.268c2.291,3.829,6.868,5.859,11.244,4.991c4.359-0.865,7.809-4.465,8.481-8.859
			C724.215,335.805,724.256,335.263,724.257,334.721z"/>
	</g>
	<g id="POLYLINE_2671_">
		
			<path fill="none" stroke="#F368E0" stroke-width="2.25" stroke-linecap="round" stroke-linejoin="round" stroke-miterlimit="10" d="
			M731.582,334.721c-0.008-3.697-1.156-7.348-3.287-10.371c-2.127-3.018-5.177-5.341-8.654-6.584
			c-3.478-1.244-7.306-1.386-10.866-0.403c-3.56,0.983-6.778,3.075-9.121,5.929c-2.335,2.844-3.76,6.391-4.039,10.06
			c-0.281,3.696,0.602,7.441,2.507,10.621c1.897,3.168,4.767,5.709,8.142,7.207c3.364,1.494,7.16,1.921,10.772,1.214
			c3.624-0.71,6.992-2.551,9.545-5.22c2.544-2.659,4.235-6.086,4.792-9.724C731.512,336.547,731.581,335.634,731.582,334.721z"/>
	</g>
	<g id="POLYLINE_2670_">
		
			<path fill="none" stroke="#F368E0" stroke-width="2.25" stroke-linecap="round" stroke-linejoin="round" stroke-miterlimit="10" d="
			M734.586,334.721c-0.021-4.303-1.334-8.544-3.813-12.07c-2.486-3.536-6.048-6.256-10.119-7.713
			c-4.07-1.457-8.549-1.616-12.715-0.46c-4.139,1.148-7.881,3.589-10.606,6.909c-2.725,3.319-4.392,7.464-4.713,11.748
			c-0.323,4.311,0.704,8.673,2.925,12.382c2.221,3.709,5.582,6.674,9.534,8.425c3.928,1.739,8.369,2.227,12.581,1.392
			c4.213-0.836,8.132-2.981,11.098-6.088c2.985-3.127,4.96-7.15,5.597-11.426C734.509,336.792,734.581,335.758,734.586,334.721z"/>
	</g>
	<g id="POLYLINE_2669_">
		
			<path fill="none" stroke="#F368E0" stroke-width="2.25" stroke-linecap="round" stroke-linejoin="round" stroke-miterlimit="10" d="
			M746.765,334.721c-0.03-3.424-0.525-6.821-1.571-10.086c-1.025-3.199-2.527-6.233-4.456-8.984c-1.963-2.8-4.365-5.293-7.088-7.36
			c-2.696-2.047-5.704-3.677-8.891-4.818c-3.18-1.138-6.532-1.788-9.908-1.918c-3.424-0.132-6.87,0.268-10.17,1.189
			c-3.236,0.903-6.322,2.294-9.145,4.116c-2.869,1.852-5.448,4.159-7.615,6.798c-2.153,2.622-3.902,5.577-5.161,8.727
			c-1.255,3.14-2.026,6.463-2.284,9.835c-0.261,3.409,0.015,6.861,0.807,10.187c0.785,3.293,2.075,6.462,3.814,9.366
			c1.735,2.898,3.914,5.528,6.44,7.77c2.562,2.274,5.48,4.152,8.615,5.535c3.074,1.356,6.342,2.239,9.679,2.623
			c3.393,0.39,6.85,0.243,10.199-0.422c3.328-0.66,6.554-1.834,9.527-3.47c2.963-1.63,5.667-3.71,8.006-6.152
			c2.365-2.469,4.342-5.312,5.84-8.385c1.483-3.043,2.497-6.31,2.996-9.659C746.642,337.991,746.75,336.36,746.765,334.721z"/>
	</g>
	<g id="POLYLINE_2668_">
		
			<path fill="none" stroke="#F368E0" stroke-width="2.25" stroke-linecap="round" stroke-linejoin="round" stroke-miterlimit="10" d="
			M310.475,334.721c-0.018-2.116-2.728-3.142-4.114-1.513c-1.377,1.618,0.056,4.159,2.153,3.818
			C309.638,336.843,310.465,335.852,310.475,334.721z"/>
	</g>
	<g id="POLYLINE_2667_">
		
			<path fill="none" stroke="#F368E0" stroke-width="2.25" stroke-linecap="round" stroke-linejoin="round" stroke-miterlimit="10" d="
			M315.565,334.721c-0.004-3.102-2-5.945-4.923-6.991c-2.92-1.044-6.272-0.119-8.241,2.278c-1.968,2.398-2.224,5.865-0.632,8.527
			c1.593,2.661,4.773,4.072,7.815,3.469c3.03-0.601,5.427-3.103,5.894-6.157C315.536,335.474,315.565,335.098,315.565,334.721z"/>
	</g>
	<g id="POLYLINE_2666_">
		
			<path fill="none" stroke="#F368E0" stroke-width="2.25" stroke-linecap="round" stroke-linejoin="round" stroke-miterlimit="10" d="
			M318.824,334.721c-0.008-4.464-2.876-8.552-7.083-10.058c-4.201-1.504-9.025-0.17-11.857,3.278
			c-2.833,3.45-3.2,8.439-0.909,12.268c2.291,3.829,6.868,5.859,11.244,4.991c4.359-0.865,7.809-4.465,8.481-8.859
			C318.782,335.805,318.823,335.263,318.824,334.721z"/>
	</g>
	<g id="POLYLINE_2665_">
		
			<path fill="none" stroke="#F368E0" stroke-width="2.25" stroke-linecap="round" stroke-linejoin="round" stroke-miterlimit="10" d="
			M326.149,334.721c-0.008-3.697-1.156-7.348-3.287-10.371c-2.127-3.018-5.177-5.341-8.654-6.584
			c-3.478-1.244-7.306-1.386-10.866-0.403c-3.56,0.983-6.778,3.075-9.121,5.929c-2.335,2.844-3.76,6.391-4.039,10.06
			c-0.281,3.696,0.602,7.441,2.507,10.621c1.897,3.168,4.767,5.709,8.142,7.207c3.364,1.494,7.16,1.921,10.772,1.214
			c3.624-0.71,6.992-2.551,9.545-5.22c2.544-2.659,4.235-6.086,4.792-9.724C326.079,336.547,326.148,335.634,326.149,334.721z"/>
	</g>
	<g id="POLYLINE_2664_">
		
			<path fill="none" stroke="#F368E0" stroke-width="2.25" stroke-linecap="round" stroke-linejoin="round" stroke-miterlimit="10" d="
			M329.153,334.721c-0.021-4.303-1.334-8.544-3.813-12.07c-2.486-3.536-6.048-6.256-10.119-7.713
			c-4.07-1.457-8.549-1.616-12.715-0.46c-4.139,1.148-7.881,3.589-10.606,6.909c-2.725,3.319-4.392,7.464-4.713,11.748
			c-0.323,4.311,0.704,8.673,2.925,12.382c2.221,3.709,5.582,6.674,9.534,8.425c3.928,1.739,8.369,2.227,12.581,1.392
			c4.213-0.836,8.132-2.981,11.098-6.088c2.985-3.127,4.96-7.15,5.597-11.426C329.076,336.792,329.148,335.758,329.153,334.721z"/>
	</g>
	<g id="POLYLINE_2663_">
		
			<path fill="none" stroke="#F368E0" stroke-width="2.25" stroke-linecap="round" stroke-linejoin="round" stroke-miterlimit="10" d="
			M341.331,334.721c-0.03-3.424-0.525-6.821-1.571-10.086c-1.025-3.199-2.527-6.233-4.456-8.984c-1.963-2.8-4.365-5.293-7.088-7.36
			c-2.696-2.047-5.704-3.677-8.891-4.818c-3.18-1.138-6.532-1.788-9.908-1.918c-3.424-0.132-6.87,0.268-10.17,1.189
			c-3.236,0.903-6.322,2.294-9.145,4.116c-2.869,1.852-5.448,4.159-7.615,6.798c-2.153,2.622-3.902,5.577-5.161,8.727
			c-1.255,3.14-2.026,6.463-2.284,9.835c-0.261,3.409,0.015,6.861,0.807,10.187c0.785,3.293,2.075,6.462,3.814,9.366
			c1.735,2.898,3.913,5.528,6.44,7.77c2.562,2.274,5.48,4.152,8.615,5.535c3.074,1.356,6.342,2.239,9.679,2.623
			c3.393,0.39,6.85,0.243,10.199-0.422c3.328-0.66,6.554-1.834,9.527-3.47c2.963-1.63,5.667-3.71,8.006-6.152
			c2.365-2.469,4.343-5.312,5.84-8.385c1.483-3.043,2.497-6.31,2.996-9.659C341.209,337.991,341.317,336.36,341.331,334.721z"/>
	</g>
	<g id="POLYLINE_2662_">
		
			<path fill="none" stroke="#F368E0" stroke-width="2.25" stroke-linecap="round" stroke-linejoin="round" stroke-miterlimit="10" d="
			M75.183,265.264c1.512,0,3.025,0,4.537,0c0.31,0,0.75-0.084,1.01,0.063c0.358,0.201,0.701,0.791,0.971,1.096
			c1.248,1.408,2.496,2.816,3.743,4.224c0.555,0.626,1.109,1.252,1.664,1.877c0.215,0.243,0.663,0.581,0.786,0.887
			c0.099,0.246,0.009,0.708,0.009,0.969c0,0.882,0,1.765,0,2.647c0,0.952,0,1.904,0,2.857c0,0.425,0.145,1.149,0,1.557
			c-0.07,0.196-0.326,0.397-0.465,0.554c-0.492,0.555-0.984,1.11-1.476,1.665c-1.276,1.44-2.553,2.88-3.829,4.32
			c-0.401,0.453-0.825,1.137-1.32,1.489c-0.295,0.21-0.493,0.157-0.906,0.157c-1.701,0-3.402,0-5.104,0
			c0.11-7.104,0.221-14.209,0.331-21.314C75.151,267.297,75.167,266.281,75.183,265.264z"/>
	</g>
	<g id="POLYLINE_2661_">
		
			<path fill="none" stroke="#F368E0" stroke-width="2.25" stroke-linecap="round" stroke-linejoin="round" stroke-miterlimit="10" d="
			M106.591,250.939c5.849,0,11.697,0,17.546,0c4.076,0,8.152,0,12.228,0c1.407,0,2.813,0,4.22,0c0.308,0,1.667,0.211,1.912,0
			c0.115-0.099,0.032-0.696,0.032-0.864c0-0.987,0-1.975,0-2.962c0-3.407,0-6.814,0-10.221c0-8.29,0-16.58,0-24.87
			c0-2.375,0-4.749,0-7.124c0-0.235,0.07-0.55-0.081-0.652c-0.291-0.196-1.41,0-1.748,0c-7.161,0-14.322,0-21.483,0
			c-7.005,0-14.01,0-21.016,0c-0.256,0-1.373-0.174-1.58,0c-0.131,0.11-0.04,0.751-0.04,0.944c0,2.78,0,5.56,0,8.34
			c0,8.184,0,16.369,0,24.553c0,1.373,0,2.746,0,4.118c0,0.51-0.194,1.478,0,1.96c0.206,0.511,1.463,1.055,1.92,1.361
			c1.733,1.16,3.467,2.321,5.2,3.481C104.664,249.649,105.627,250.294,106.591,250.939z"/>
	</g>
	<g id="POLYLINE_2660_">
		
			<line fill="none" stroke="#F368E0" stroke-width="2.25" stroke-linecap="round" stroke-linejoin="round" stroke-miterlimit="10" x1="469.702" y1="278.091" x2="777.602" y2="278.091"/>
	</g>
	<g id="POLYLINE_2659_">
		
			<path fill="none" stroke="#F368E0" stroke-width="2.25" stroke-linecap="round" stroke-linejoin="round" stroke-miterlimit="10" d="
			M470.802,175.033c0,5.178,0,10.355,0,15.533c0,3.38,0,6.761,0,10.141c0,0.965,0,1.929,0,2.894c0,0.168,0.065,0.56-0.047,0.645
			c-0.104,0.079-0.589,0-0.715,0c-0.507,0-1.015,0-1.522,0c-1.712,0-3.424,0-5.137,0c-5.616,0-11.231,0-16.847,0
			c-7.282,0-14.565,0-21.847,0c-7.458,0-14.917,0-22.375,0c-6.144,0-12.287,0-18.431,0c-3.338,0-6.676,0-10.014,0
			c-0.784,0-0.697,0.075-0.697-0.757c0-2.566,0-5.132,0-7.698c0-6.544,0-13.089,0-19.633c0-0.43,0-0.86,0-1.29"/>
	</g>
	<g id="POLYLINE_2658_">
		
			<path fill="none" stroke="#F368E0" stroke-width="2.25" stroke-linecap="round" stroke-linejoin="round" stroke-miterlimit="10" d="
			M661.275,204.246c0,4.597,0,9.195,0,13.792c0,0.462-0.245,2.142,0.137,2.334c0.367,0.184,1.311,0,1.712,0c2.801,0,5.602,0,8.403,0
			c4.533,0,9.067,0,13.6,0c5.637,0,11.273,0,16.91,0c6.091,0,12.181,0,18.272,0c5.982,0,11.964,0,17.945,0
			c5.225,0,10.449,0,15.674,0c3.833,0,7.665,0,11.498,0c1.221,0,2.443,0,3.664,0c0.563,0,1.359,0.147,1.908,0
			c0.047-0.013,0.205,0.031,0.239-0.002c0.169-0.168,0-1.364,0-1.59c0-2.768,0-5.536,0-8.304c0-1.319,0-2.638,0-3.957
			c0-0.475,0-0.95,0-1.426c0-0.147,0.085-0.626,0-0.751c-0.119-0.175-0.498-0.096-0.772-0.096c-2.298,0-4.596,0-6.895,0
			c-4.173,0-8.346,0-12.519,0c-5.4,0-10.8,0-16.2,0c-6.058,0-12.115,0-18.173,0c-6.072,0-12.144,0-18.215,0
			c-5.465,0-10.93,0-16.394,0c-4.221,0-8.442,0-12.663,0c-2.397,0-4.795,0-7.192,0C661.9,204.246,661.588,204.246,661.275,204.246z"
			/>
	</g>
	<g id="POLYLINE_2657_">
		
			<path fill="none" stroke="#F368E0" stroke-width="2.25" stroke-linecap="round" stroke-linejoin="round" stroke-miterlimit="10" d="
			M661.275,178.802c0,4.644,0,9.287,0,13.931c0,1.045,0,2.089,0,3.134c0,0.145-0.088,0.791,0.015,0.886c0.148,0.136,1.071,0,1.26,0
			c2.622,0,5.243,0,7.865,0c4.435,0,8.869,0,13.304,0c5.643,0,11.286,0,16.929,0c6.188,0,12.376,0,18.564,0
			c6.086,0,12.172,0,18.258,0c5.337,0,10.674,0,16.011,0c3.927,0,7.855,0,11.782,0c1.25,0,2.499,0,3.749,0
			c0.591,0,1.399,0.146,1.977,0c0.049-0.012,0.212,0.033,0.248-0.002c0.156-0.151,0-1.299,0-1.504c0-2.714,0-5.428,0-8.142
			c0-2.498,0-4.996,0-7.494c0-0.651,0.191-0.809-0.414-0.809c-2.077,0-4.154,0-6.232,0c-4.071,0-8.141,0-12.212,0
			c-5.391,0-10.781,0-16.172,0c-6.115,0-12.23,0-18.345,0c-6.17,0-12.341,0-18.511,0c-5.579,0-11.157,0-16.736,0
			c-4.34,0-8.68,0-13.02,0c-2.448,0-4.897,0-7.346,0C661.923,178.802,661.599,178.802,661.275,178.802z"/>
	</g>
	<g id="POLYLINE_2656_">
		
			<line fill="none" stroke="#F368E0" stroke-width="2.25" stroke-linecap="round" stroke-linejoin="round" stroke-miterlimit="10" x1="655.108" y1="278.091" x2="655.108" y2="175.344"/>
	</g>
	<g id="POLYLINE_2655_">
		
			<path fill="none" stroke="#F368E0" stroke-width="2.25" stroke-linecap="round" stroke-linejoin="round" stroke-miterlimit="10" d="
			M348.299,344.048c-0.008-5.329,0.03-10.665-0.15-15.993c-0.156-4.592-0.481-9.026-2.271-13.31
			c-1.842-4.41-4.492-8.684-7.673-12.251c-3.462-3.882-7.734-6.664-12.512-8.663c-4.62-1.933-9.557-3.088-14.556-3.397
			c-4.903-0.303-9.853,0.204-14.592,1.499c-4.949,1.352-9.943,3.495-13.953,6.735c-3.96,3.199-6.874,7.254-9.276,11.711
			c-2.274,4.219-4.029,8.64-4.501,13.437c-0.518,5.266-0.369,10.63-0.379,15.915c-0.003,1.342-0.005,2.685-0.007,4.027"/>
	</g>
	<g id="POLYLINE_2654_">
		
			<path fill="none" stroke="#F368E0" stroke-width="2.25" stroke-linecap="round" stroke-linejoin="round" stroke-miterlimit="10" d="
			M752.338,345.206c-0.029-5.412-0.038-10.825-0.125-16.236c-0.037-2.272-0.169-4.531-0.466-6.784
			c-0.338-2.568-0.576-5.175-1.392-7.648c-1.468-4.446-4.48-8.672-7.75-11.975c-3.394-3.427-7.418-5.908-11.894-7.671
			c-4.436-1.747-9.158-2.619-13.915-2.787c-4.864-0.171-9.769,0.361-14.467,1.639c-4.744,1.291-9.788,3.33-13.656,6.428
			c-3.92,3.14-6.957,6.948-9.317,11.377c-2.112,3.965-3.48,8.285-3.829,12.77c-0.402,5.17-0.469,10.351-0.484,15.535
			c-0.004,1.398-0.008,2.796-0.012,4.194"/>
	</g>
	<g id="POLYLINE_2653_">
		
			<line fill="none" stroke="#F368E0" stroke-width="2.25" stroke-linecap="round" stroke-linejoin="round" stroke-miterlimit="10" x1="878.216" y1="166.227" x2="878.216" y2="346.498"/>
	</g>
	<g id="POLYLINE_2652_">
		
			<path fill="none" stroke="#F368E0" stroke-width="2.25" stroke-linecap="round" stroke-linejoin="round" stroke-miterlimit="10" d="
			M900.407,330.47c0.244-4.557,0.468-9.112,0.647-13.672c0.179-4.572,0.244-9.148,0.346-13.722
			c0.097-4.358,0.092-8.719,0.127-13.077c0.031-3.889,0.015-7.781-0.062-11.67c-0.087-4.395-0.272-8.785-0.516-13.174
			c-0.233-4.19-0.559-8.375-0.914-12.557c-0.373-4.384-0.794-8.763-1.262-13.138c-0.455-4.261-0.958-8.516-1.519-12.764
			c-0.581-4.403-1.205-8.801-1.929-13.183c-0.705-4.27-1.506-8.525-2.411-12.757c-0.213-0.997-0.438-1.992-0.657-2.988"/>
	</g>
	<g id="POLYLINE_2651_">
		
			<path fill="none" stroke="#F368E0" stroke-width="2.25" stroke-linecap="round" stroke-linejoin="round" stroke-miterlimit="10" d="
			M898.819,293.941c0.006-6.249,0.054-12.498-0.13-18.745c-0.19-6.464-0.593-12.919-1.092-19.366
			c-0.46-5.94-1.022-11.879-1.698-17.798c-0.765-6.704-1.621-13.388-2.607-20.063c-0.88-5.96-1.975-11.894-3.276-17.776
			c-0.174-0.788-0.349-1.576-0.523-2.364"/>
	</g>
	<g id="POLYLINE_2650_">
		
			<line fill="none" stroke="#F368E0" stroke-width="2.25" stroke-linecap="round" stroke-linejoin="round" stroke-miterlimit="10" x1="878.216" y1="202.629" x2="890.55" y2="202.629"/>
	</g>
	<g id="POLYLINE_2649_">
		
			<path fill="none" stroke="#F368E0" stroke-width="2.25" stroke-linecap="round" stroke-linejoin="round" stroke-miterlimit="10" d="
			M884.602,330.47c0-1.041-0.005-2.081,0-3.122c0.003-0.547,0.01-1.103,0.235-1.614c0.233-0.528,0.692-0.953,1.07-1.379
			c0.91-1.026,1.82-2.052,2.729-3.078c0.795-0.896,1.555-2.019,2.726-2.444c0.857-0.311,1.789-0.303,2.687-0.305
			c2.318-0.005,4.636,0,6.954,0"/>
	</g>
	<g id="POLYLINE_2648_">
		
			<path fill="none" stroke="#F368E0" stroke-width="2.25" stroke-linecap="round" stroke-linejoin="round" stroke-miterlimit="10" d="
			M921.233,207.558c1.07,3.777,2.141,7.554,3.211,11.331c0.401,1.414,0.917,2.842,1.214,4.283c0.233,1.132-0.728,1.362-1.63,1.638
			c-0.663,0.203-1.849,0.661-2.435,0.077c-0.235-0.235-0.295-0.61-0.383-0.918c-0.22-0.776-0.44-1.553-0.66-2.329
			c-1.186-4.184-2.389-8.364-3.558-12.553c-0.368-1.319,0.797-1.535,1.858-1.887C919.721,206.912,920.858,206.379,921.233,207.558z"
			/>
	</g>
	<g id="POLYLINE_2647_">
		
			<path fill="none" stroke="#F368E0" stroke-width="2.25" stroke-linecap="round" stroke-linejoin="round" stroke-miterlimit="10" d="
			M914.865,197.261c1.639-0.112,3.327,0.625,3.394,2.472c0.043,1.19-0.578,2.28-1.26,3.207c-0.814,1.106-1.771,2.141-2.784,3.067
			c-0.529,0.483-1.155,1.066-1.852,1.301c-0.909,0.306-1.52-0.37-2.025-1.047c-0.959-1.285-1.772-2.706-2.621-4.063
			c-0.297-0.475-0.607-0.953-0.854-1.457c-0.136-0.277-0.276-0.469-0.131-0.701c0.142-0.229,0.564-0.435,0.783-0.588
			c1.364-0.956,2.914-1.667,4.513-2.127"/>
	</g>
	<g id="POLYLINE_2646_">
		
			<line fill="none" stroke="#F368E0" stroke-width="2.25" stroke-linecap="round" stroke-linejoin="round" stroke-miterlimit="10" x1="915.17" y1="205.069" x2="919.095" y2="203.738"/>
	</g>
	<g id="POLYLINE_2645_">
		
			<path fill="none" stroke="#F368E0" stroke-width="2.25" stroke-linecap="round" stroke-linejoin="round" stroke-miterlimit="10" d="
			M921.159,196.871c0.453,0.189,1.027,0.423,1.267,0.88c0.32,0.61-0.08,1.38-0.259,1.973c-0.18,0.596-0.262,1.098,0.204,1.577
			c0.571,0.587,0.824,0.939,0.846,1.811c0.012,0.45-0.173,0.903-0.146,1.324c0.049,0.757,0.458,1.629,0.662,2.354
			c0.893,3.163,1.788,6.324,2.684,9.486c0.644,2.275,1.289,4.55,1.933,6.825"/>
	</g>
	<g id="POLYLINE_2644_">
		
			<path fill="none" stroke="#F368E0" stroke-width="2.25" stroke-linecap="round" stroke-linejoin="round" stroke-miterlimit="10" d="
			M928.329,223.023c0.486,1.663-0.249,2.763-1.649,3.528c-1.094,0.599-2.238,1.123-3.401,1.573c-0.65,0.251-1.366,0.551-2.074,0.588
			c-1.771,0.094-1.978-2.17-2.332-3.421c-1.019-3.597-2.039-7.194-3.058-10.791c-0.519-1.831-1.038-3.662-1.557-5.493
			c-0.218-0.771-0.323-1.702-0.82-2.344"/>
	</g>
	<g id="POLYLINE_2643_">
		
			<line fill="none" stroke="#F368E0" stroke-width="2.25" stroke-linecap="round" stroke-linejoin="round" stroke-miterlimit="10" x1="251.025" y1="278.091" x2="251.199" y2="174.661"/>
	</g>
	<g id="POLYLINE_2642_">
		
			<line fill="none" stroke="#F368E0" stroke-width="2.25" stroke-linecap="round" stroke-linejoin="round" stroke-miterlimit="10" x1="551.798" y1="278.091" x2="551.972" y2="175.17"/>
	</g>
	<g id="POLYLINE_2641_">
		
			<path fill="none" stroke="#F368E0" stroke-width="2.25" stroke-linecap="round" stroke-linejoin="round" stroke-miterlimit="10" d="
			M820.001,267.848c1.57,0,2.55-1.325,2.561-2.793c0.018-2.417,0-4.835,0-7.252c0-8.674,0-17.349,0-26.023
			c0-2.309,0.039-4.622,0-6.931c-0.025-1.488-1.043-2.651-2.567-2.715c-1.94-0.082-3.902,0-5.843,0c-4.184,0-8.368,0-12.551,0
			c-7.023,0-14.046-0.004-21.069,0c-1.461,0.001-2.79,0.793-2.922,2.384c-0.141,1.697-0.006,3.458-0.006,5.158
			c0,8.552,0,17.105,0,25.657c0,2.981,0,5.961,0,8.942c0,1.44,0.12,2.919,1.778,3.451c0.429,0.138,0.864,0.123,1.307,0.123
			c1.004,0,2.008,0,3.012,0c3.844,0,7.687,0,11.531,0c7.786,0,15.573,0,23.359,0C819.06,267.848,819.53,267.848,820.001,267.848z"/>
	</g>
	<g id="POLYLINE_2640_">
		
			<path fill="none" stroke="#F368E0" stroke-width="2.25" stroke-linecap="round" stroke-linejoin="round" stroke-miterlimit="10" d="
			M825.745,265.286c0,1.622,1.378,2.557,2.87,2.561c2.529,0.008,5.059,0,7.588,0c9.008,0,18.016,0,27.024,0
			c2.575,0,5.149,0.001,7.724,0c1.506-0.001,2.838-0.84,2.935-2.473c0.112-1.872,0.002-3.784,0.002-5.659c0-4.263,0-8.526,0-12.789
			c0-7.279,0.003-14.558,0-21.837c-0.001-1.513-0.825-2.856-2.473-2.956c-1.791-0.109-3.621-0.002-5.414-0.002
			c-8.864,0-17.728,0-26.591,0c-3.219,0-6.438,0-9.658,0c-1.464,0-3.031-0.119-3.772,1.49c-0.564,1.224-0.235,3.068-0.235,4.349
			c0,3.865,0,7.731,0,11.596c0,8.066,0,16.132,0,24.198C825.745,264.273,825.745,264.78,825.745,265.286z"/>
	</g>
	<g id="POLYLINE_2639_">
		
			<path fill="none" stroke="#F368E0" stroke-width="2.25" stroke-linecap="round" stroke-linejoin="round" stroke-miterlimit="10" d="
			M866.045,266.104c2.842-0.025,2.242-3.618,2.242-5.461c0-5.092,0-10.183,0-15.275c0-5.034,0-10.068,0-15.103
			c0-1.884,0.507-5.002-2.231-5.136c-4.342-0.213-8.744,0-13.092,0c-1.208,0-2.359,0.466-2.636,1.781
			c-0.165,0.784-0.048,1.684-0.048,2.476c0,4.79,0,9.579,0,14.369c0,5.282,0,10.564,0,15.846c0,1.323-0.006,2.646,0,3.969
			c0.004,1.035,0.411,1.994,1.447,2.388c0.474,0.18,0.971,0.145,1.467,0.146c1.068,0,2.136,0,3.205,0c2.691,0,5.382,0,8.072,0
			C864.997,266.104,865.521,266.104,866.045,266.104z"/>
	</g>
	<g id="POLYLINE_2638_">
		
			<path fill="none" stroke="#F368E0" stroke-width="2.25" stroke-linecap="round" stroke-linejoin="round" stroke-miterlimit="10" d="
			M878.216,330.47c6.779,0,13.559,0,20.338,0c0.735,0,1.489-0.047,2.224,0.007c0.873,0.063,1.104,0.609,1.232,1.407
			c0.156,0.975,0.25,1.799,0.567,2.73c0.343,1.008,0.254,2.162,0.285,3.208c0.063,2.145,0.047,4.39-0.818,6.397
			c-0.683,1.584-1.788,2.164-3.423,2.476c-3.227,0.615-6.524,0.937-9.777,1.378c-2.912,0.395-5.829,0.749-8.745,1.115
			c-2.863,0.36-5.623,0.684-8.515,0.616c-1.072-0.025-2.143-0.025-3.215-0.025c-4.255,0-8.51,0-12.765,0c-7.5,0-14.999,0-22.499,0
			c-8.959,0-17.919,0-26.878,0c-8.634,0-17.269,0-25.903,0c-6.525,0-13.049,0-19.574,0c-2.629,0-5.262,0.044-7.89,0
			c-4.172-0.071-3.795-4.296-3.807-7.315c-0.025-6.182-0.014-12.381-0.374-18.555c-0.168-2.879-0.659-5.659-1.753-8.338
			c-1.039-2.545-2.451-4.949-4.104-7.143c-1.489-1.977-3.215-3.727-5.138-5.284c-2.134-1.729-4.562-2.959-7.095-4.006
			c-5.02-2.075-10.428-3.185-15.86-3.254c-5.063-0.064-10.144,0.767-14.91,2.482c-4.938,1.777-9.66,4.368-13.12,8.391
			c-3.44,3.999-5.968,9.288-7.24,14.389c-1.316,5.277-1.107,10.984-1.131,16.384c-0.014,3.163-0.016,6.326-0.024,9.488"/>
	</g>
	<g id="POLYLINE_2637_">
		
			<path fill="none" stroke="#F368E0" stroke-width="2.25" stroke-linecap="round" stroke-linejoin="round" stroke-miterlimit="10" d="
			M873.888,271.462c0,3.198,0,6.396,0,9.594c0,7.269,0,14.538,0,21.808c0,8.031,0,16.062,0,24.093c0,5.405,0,10.81,0,16.214
			c0,0.31,0.198,1.837-0.032,2.035c-0.097,0.083-0.636,0-0.757,0c-0.566,0-1.132,0-1.698,0c-4.889,0-9.778,0-14.667,0
			c-7.499,0-14.999,0-22.498,0c-8.225,0-16.45,0-24.675,0c-6.871,0-13.743,0-20.614,0c-3.62,0-7.24,0-10.86,0
			c-0.657,0-0.484-0.111-0.484-0.784c0-1.812,0-3.624,0-5.436c0-6.929,0-13.859,0-20.788c0-8.047,0-16.094,0-24.14
			c0-5.005,0-10.009,0-15.014c0-1.562,0-3.125,0-4.687c0-0.826,0-1.652,0-2.478c0-0.133-0.043-0.35,0.039-0.416
			c0.107-0.087,0.653,0,0.784,0c3.933,0,7.866,0,11.798,0c7.063,0,14.126,0,21.19,0c8.216,0,16.432,0,24.648,0
			c7.37,0,14.741,0,22.111,0c4.611,0,9.222,0,13.834,0C872.634,271.462,873.261,271.462,873.888,271.462z"/>
	</g>
	<g id="POLYLINE_2636_">
		
			<path fill="none" stroke="#F368E0" stroke-width="2.25" stroke-linecap="round" stroke-linejoin="round" stroke-miterlimit="10" d="
			M899.38,346.531c-7.766,0-15.531,0-23.297,0c-0.605,0-1.274,0.079-1.875,0c-0.055-0.007-0.273,0.039-0.315,0
			c-0.142-0.129-0.004-1.104-0.004-1.326"/>
	</g>
	<g id="POLYLINE_2635_">
		
			<path fill="none" stroke="#F368E0" stroke-width="2.25" stroke-linecap="round" stroke-linejoin="round" stroke-miterlimit="10" d="
			M678.305,344.048c-1.025,0-2.051,0-3.076,0c-2.87,0-5.74,0-8.609,0c-4.386,0-8.771,0-13.157,0c-5.626,0-11.252,0-16.878,0
			c-6.517,0-13.034,0-19.551,0c-7.149,0-14.298,0-21.446,0c-7.448,0-14.896,0-22.344,0c-7.41,0-14.82,0-22.229,0
			c-7.093,0-14.187,0-21.28,0c-6.494,0-12.987,0-19.481,0c-5.557,0-11.114,0-16.671,0c-4.311,0-8.621,0-12.932,0
			c-2.748,0-5.495,0-8.243,0c-0.701,0-1.402,0-2.103,0c-0.111,0-0.533,0.059-0.602-0.017c-0.158-0.173,0-1.233,0-1.453
			c0-1.178,0-2.356,0-3.534c0-4.144,0-8.288,0-12.432c0-5.937,0-11.875,0-17.812c0-7.015,0-14.029,0-21.044
			c0-7.431,0-14.861,0-22.292c0-7.192,0-14.384,0-21.575c0-6.237,0-12.474,0-18.711c0-4.594,0-9.187,0-13.781
			c0-2.251,0.096-4.527,0-6.776c-0.018-0.424,0.072-0.331-0.328-0.375c-0.975-0.108-2.025,0-3.004,0c-4.563,0-9.127,0-13.69,0
			c-6.736,0-13.472,0-20.207,0c-7.403,0-14.806,0-22.209,0c-6.653,0-13.305,0-19.958,0c-4.386,0-8.773,0-13.159,0
			c-0.581,0-1.161,0-1.742,0c-0.253,0-0.714-0.092-0.953,0c-0.274,0.105-0.181,0.146-0.181,0.538c0,2.422,0,4.843,0,7.265
			c0,4.691,0,9.382,0,14.072c0,6.309,0,12.618,0,18.927c0,7.197,0,14.394,0,21.591c0,7.453,0,14.907,0,22.36
			c0,6.995,0,13.991,0,20.986c0,5.83,0,11.66,0,17.49c0,4.022,0,8.045,0,12.067c0,1.109,0,2.218,0,3.327
			c0,0.163,0.125,1.054,0,1.178c-0.133,0.133-1.08,0-1.257,0c-1.125,0-2.251,0-3.376,0c-3.442,0-6.884,0-10.326,0
			c-4.761,0-9.523,0-14.284,0c0.002,1.386-0.577,4.128,1.498,4.29c0.255,0.02,0.52,0,0.775,0c1.711,0,3.422,0,5.133,0
			c3.157,0,6.315,0,9.472,0c4.428,0,8.857,0,13.285,0c5.524,0,11.048,0,16.571,0c6.467,0,12.934,0,19.4,0c7.166,0,14.331,0,21.497,0
			c7.784,0,15.569,0,23.353,0c8.152,0,16.305,0,24.457,0c8.37,0,16.74,0,25.11,0c8.412,0,16.824,0,25.236,0
			c8.279,0,16.557,0,24.836,0c7.996,0,15.992,0,23.988,0c7.46,0,14.92,0,22.38,0c6.848,0,13.695,0,20.543,0
			c5.988,0,11.976,0,17.964,0c4.977,0,9.953,0,14.93,0c3.79,0,7.58,0,11.37,0c2.428,0,4.856,0,7.284,0c0.883,0,1.79,0.06,2.672,0
			C678.886,348.195,678.305,345.456,678.305,344.048c1.144,0.019,2.287,0.037,3.431,0.056"/>
	</g>
	<g id="POLYLINE_2634_">
		
			<path fill="none" stroke="#F368E0" stroke-width="2.25" stroke-linecap="round" stroke-linejoin="round" stroke-miterlimit="10" d="
			M91.623,334.788c4.259,0.629,8.518,1.257,12.776,1.886c8.545,1.261,17.09,2.523,25.634,3.784c6.703,0.99,13.407,1.979,20.11,2.969
			c1.75,0.258,3.296,0.332,5.068,0.332c4.991,0,9.983,0,14.974,0c7.766,0,15.531,0,23.297,0c8.94,0,17.881,0,26.821,0
			c8.433,0,16.867,0,25.3,0c6.265,0,12.529,0,18.794,0c2.438,0,4.875-0.005,7.313,0c1.499,0.003,2.998,0.012,4.498,0.018"/>
	</g>
	<g id="POLYLINE_2633_">
		
			<path fill="none" stroke="#F368E0" stroke-width="2.25" stroke-linecap="round" stroke-linejoin="round" stroke-miterlimit="10" d="
			M771.235,220.371c3.697,0,7.393,0,11.09,0c8.706,0,17.412,0,26.118,0c10.303,0,20.607,0,30.91,0c8.416,0,16.832,0,25.248,0
			c3.625,0,7.25,0,10.875,0c0.913,0,1.827,0,2.74,0"/>
	</g>
	<g id="POLYLINE_2632_">
		
			<path fill="none" stroke="#F368E0" stroke-width="2.25" stroke-linecap="round" stroke-linejoin="round" stroke-miterlimit="10" d="
			M888.647,193.124c-0.631-3.162-1.57-6.247-2.545-9.317c-0.703-2.212-1.482-4.327-3.061-6.079c-1.401-1.554-2.97-2.015-5.027-2.008
			c-0.861,0.003-1.722-0.003-2.583-0.004c-1.81-0.003-3.621-0.006-5.431-0.009c-2.708-0.005-5.416-0.009-8.124-0.014
			c-3.553-0.006-7.107-0.012-10.66-0.018c-4.347-0.007-8.695-0.015-13.042-0.022c-5.089-0.009-10.178-0.017-15.267-0.026
			c-5.779-0.01-11.558-0.02-17.337-0.029c-6.436-0.011-12.872-0.022-19.308-0.033c-7.005-0.012-14.01-0.024-21.015-0.036
			c-7.539-0.013-15.078-0.025-22.618-0.038c-8.021-0.014-16.043-0.027-24.065-0.041c-8.452-0.014-16.904-0.029-25.356-0.043
			c-8.831-0.015-17.661-0.03-26.492-0.045c-9.157-0.015-18.314-0.031-27.472-0.046c-9.432-0.016-18.864-0.032-28.296-0.048
			c-9.655-0.016-19.31-0.033-28.965-0.049c-9.826-0.017-19.652-0.033-29.478-0.05c-9.945-0.017-19.891-0.034-29.836-0.05
			c-10.013-0.017-20.025-0.034-30.038-0.051c-10.028-0.017-20.056-0.034-30.084-0.051c-9.992-0.017-19.983-0.034-29.975-0.051
			c-9.903-0.017-19.807-0.033-29.71-0.05c-9.763-0.017-19.526-0.033-29.289-0.05c-9.571-0.016-19.142-0.032-28.713-0.049
			c-9.327-0.016-18.654-0.032-27.981-0.047c-9.031-0.015-18.063-0.031-27.094-0.046c-8.684-0.015-17.367-0.029-26.051-0.044
			c-8.307-0.014-16.613-0.028-24.92-0.042c-7.831-0.013-15.663-0.026-23.494-0.04c-7.328-0.012-14.656-0.025-21.984-0.037
			c-6.773-0.011-13.545-0.023-20.318-0.034c-6.165-0.01-12.331-0.021-18.496-0.031c-5.506-0.009-11.012-0.019-16.519-0.028
			c-4.795-0.008-9.591-0.016-14.386-0.024c-4.032-0.007-8.065-0.014-12.097-0.02c-3.218-0.005-6.435-0.011-9.653-0.016
			c-2.351-0.004-4.702-0.008-7.053-0.012c-1.433-0.002-2.865-0.005-4.298-0.007c-0.463-0.001-0.926-0.002-1.389-0.002"/>
	</g>
	<g id="POLYLINE_2631_">
		
			<path fill="none" stroke="#F368E0" stroke-width="2.25" stroke-linecap="round" stroke-linejoin="round" stroke-miterlimit="10" d="
			M893.711,193.238c0.163-6.646,0.327-13.293,0.49-19.939c0.034-1.392,0.387-3.344-0.179-4.687c-0.843-2-3.91-1.567-5.621-1.653
			c-1.698-0.086-3.404-0.229-5.104-0.256c-0.817-0.013-1.719,0.134-2.228,0.846"/>
	</g>
	<g id="POLYLINE_2630_">
		
			<path fill="none" stroke="#F368E0" stroke-width="2.25" stroke-linecap="round" stroke-linejoin="round" stroke-miterlimit="10" d="
			M74.656,310.586c0.031-2.374,0.062-4.749,0.093-7.123c0.07-5.408,0.141-10.817,0.211-16.225c0.077-5.895,0.153-11.789,0.23-17.684
			c0.049-3.745,0.097-7.49,0.146-11.236c0.019-1.482,0.065-2.964,0.105-4.446c0.13-4.902,0.26-9.804,0.391-14.706
			c0.158-5.929,0.315-11.858,0.473-17.788c0.102-3.825,0.203-7.649,0.305-11.474c0.074-2.769,0.198-5.538,0.3-8.306
			c0.174-4.697,0.327-9.395,0.523-14.091c0.162-3.867,0.363-7.736,0.616-11.598c0.117-1.79,0.226-3.6,0.509-5.373
			c0.126-0.789,0.296-1.58,0.654-2.299c0.537-1.078,1.407-1.994,2.456-2.584c1.622-0.913,3.573-1.013,5.391-1.018
			c0.255-0.001,0.509,0.001,0.764,0.001c0.62,0.001,1.24,0.002,1.86,0.003c0.973,0.002,1.947,0.003,2.92,0.005
			c1.322,0.002,2.644,0.004,3.966,0.007c1.647,0.003,3.293,0.006,4.94,0.008c1.965,0.003,3.93,0.007,5.895,0.01
			c2.271,0.004,4.543,0.008,6.814,0.012c2.566,0.004,5.132,0.009,7.698,0.013c2.863,0.005,5.726,0.01,8.589,0.015
			c3.122,0.005,6.243,0.011,9.365,0.016c3.381,0.006,6.762,0.011,10.143,0.017c3.629,0.006,7.257,0.012,10.886,0.018
			c3.864,0.007,7.729,0.013,11.593,0.02c4.108,0.007,8.216,0.014,12.324,0.021c4.302,0.007,8.604,0.015,12.906,0.022
			c4.502,0.008,9.005,0.015,13.507,0.023c4.691,0.008,9.382,0.016,14.074,0.024c4.868,0.008,9.737,0.017,14.605,0.025
			c5.057,0.009,10.114,0.017,15.171,0.026c5.188,0.009,10.376,0.018,15.563,0.026c5.329,0.009,10.659,0.018,15.988,0.027
			c5.459,0.009,10.919,0.019,16.378,0.028c5.578,0.009,11.155,0.019,16.733,0.028c5.711,0.01,11.421,0.019,17.132,0.029
			c5.779,0.01,11.558,0.02,17.338,0.029c5.862,0.01,11.724,0.02,17.586,0.03c5.933,0.01,11.866,0.02,17.8,0.03
			c5.993,0.01,11.985,0.02,17.978,0.03c6.068,0.01,12.136,0.021,18.205,0.031c6.076,0.01,12.152,0.021,18.229,0.031
			c6.1,0.01,12.201,0.021,18.301,0.031c6.113,0.01,12.225,0.021,18.338,0.031c6.113,0.01,12.226,0.021,18.339,0.031
			c6.13,0.01,12.26,0.021,18.39,0.031c6.079,0.01,12.158,0.021,18.236,0.031c6.044,0.01,12.088,0.02,18.132,0.031
			c5.997,0.01,11.995,0.02,17.992,0.031c5.939,0.01,11.878,0.02,17.818,0.03c5.896,0.01,11.792,0.02,17.688,0.03
			c5.787,0.01,11.574,0.02,17.361,0.029c5.693,0.01,11.387,0.019,17.08,0.029c5.588,0.009,11.176,0.019,16.764,0.028
			c5.471,0.009,10.942,0.019,16.413,0.028c5.366,0.009,10.733,0.018,16.099,0.027c5.201,0.009,10.401,0.018,15.602,0.026
			c5.048,0.009,10.096,0.017,15.145,0.026c4.884,0.008,9.768,0.017,14.652,0.025c4.708,0.008,9.416,0.016,14.124,0.024
			c4.541,0.008,9.081,0.015,13.622,0.023c4.32,0.007,8.64,0.015,12.96,0.022c4.109,0.007,8.217,0.014,12.326,0.021
			c3.886,0.007,7.771,0.013,11.657,0.02c3.651,0.006,7.302,0.012,10.952,0.019c3.419,0.006,6.839,0.012,10.258,0.017
			c3.145,0.005,6.289,0.011,9.434,0.016c2.875,0.005,5.749,0.01,8.624,0.015c2.593,0.004,5.185,0.009,7.778,0.013
			c2.299,0.004,4.598,0.008,6.897,0.012c2.002,0.003,4.004,0.007,6.006,0.01c1.675,0.003,3.35,0.006,5.025,0.009
			c1.346,0.002,2.692,0.005,4.038,0.007c1.005,0.002,2.011,0.003,3.016,0.005c0.653,0.001,1.306,0.002,1.959,0.003
			c0.289,0,0.578-0.002,0.867,0.001c1.437,0.018,2.9,0.257,4.182,0.935c1.995,1.056,3.29,3.079,4.3,5.025
			c1.753,3.378,2.833,7.079,3.93,10.708c1.054,3.487,1.967,7.011,2.863,10.541"/>
	</g>
	<g id="POLYLINE_2629_">
		
			<path fill="none" stroke="#F368E0" stroke-width="2.25" stroke-linecap="round" stroke-linejoin="round" stroke-miterlimit="10" d="
			M745.087,345.141c3.42,0.056,6.835,0.065,10.256,0.065c5.913,0,11.825,0,17.738,0c1.508,0,3.015,0,4.522,0"/>
	</g>
	<g id="POLYLINE_2628_">
		
			<path fill="none" stroke="#F368E0" stroke-width="2.25" stroke-linecap="round" stroke-linejoin="round" stroke-miterlimit="10" d="
			M340,344.028c1.675,0.007,3.35,0.013,5.025,0.02c-0.022-6.734,0.163-13.534-0.359-20.255c-0.493-6.343-3.441-12.056-7.233-17.077
			c-1.726-2.285-3.736-4.256-5.994-6.013c-2.386-1.856-5.272-3.2-8.081-4.286c-5.361-2.073-11.144-3.015-16.886-2.754
			c-5.758,0.262-11.452,1.732-16.612,4.302c-2.701,1.345-5.142,2.983-7.313,5.088c-2.089,2.026-3.761,4.427-5.242,6.921
			c-1.647,2.775-3.134,5.713-4.134,8.788c-0.972,2.988-1.205,6.066-1.313,9.188c-0.107,3.111-0.13,6.225-0.138,9.338
			c-0.006,2.268-0.011,4.536-0.017,6.804c-0.002,0.806,0.019,1.636-0.326,2.386c-0.597,1.298-1.905,1.417-3.156,1.417
			c-1.615,0-3.229,0-4.844,0c-6.978,0-13.956,0-20.934,0c-9.795,0-19.59,0-29.385,0c-9.976,0-19.952,0-29.928,0
			c-7.592,0-15.184,0-22.776,0c-3.33,0-6.673,0.081-10.003-0.025c-4.756-0.15-9.568-1.087-14.29-1.702
			c-9.019-1.175-18.037-2.349-27.056-3.524c-8.435-1.099-16.869-2.197-25.304-3.296c-2.944-0.384-6.182-0.447-8.581-2.423
			c-1.122-0.924-1.881-2.156-1.999-3.623c-0.23-2.843-0.024-5.773-0.024-8.62c0-4.172-0.003-8.343,0-12.515
			c0.001-0.817,0.263-1.498,1.189-1.582c1.322-0.12,2.711,0,4.037,0c3.683,0,7.365,0,11.048,0"/>
	</g>
	<g id="POLYLINE_2627_">
		
			<path fill="none" stroke="#F368E0" stroke-width="2.25" stroke-linecap="round" stroke-linejoin="round" stroke-miterlimit="10" d="
			M729.654,275.209c5.2,0,10.4,0,15.6,0c7.618,0,15.236,0,22.854,0c0.523,0,2.918,0.288,3.127-0.143c0.191-0.394,0-1.363,0-1.792
			c0-1.141,0-2.282,0-3.423c0-7.708,0-15.417,0-23.125c0-6.791,0-13.583,0-20.374c0-0.494,0.178-1.386,0-1.855
			c-0.107-0.282,0.08-0.078-0.165-0.187c-0.239-0.106-0.773,0-1.031,0c-0.656,0-1.313,0-1.969,0c-5.014,0-10.028,0-15.042,0
			c-7.627,0-15.255,0-22.882,0c-8.547,0-17.093,0-25.64,0c-7.794,0-15.587,0-23.381,0c-5.302,0-10.605,0-15.907,0
			c-1.18,0-2.361-0.01-3.541,0c-0.077,0.001-0.353-0.04-0.403,0.012c-0.131,0.137,0,1.047,0,1.225c0,6.336,0,12.673,0,19.009
			c0,7.956,0,15.912,0,23.869c0,2.087,0,4.174,0,6.261c0,0.451-0.106,0.437,0.255,0.523c0.426,0.102,1.006,0,1.443,0
			c0.779,0,1.557,0,2.336,0c3.978,0,7.956,0,11.934,0c0.64,0,1.28,0,1.92,0c0.165,0,0.699,0.096,0.844,0
			c0.294-0.194,0.523-1.346,0.644-1.662c2.573-6.728,5.146-13.457,7.719-20.185c0.118-0.31,0.255-1.039,0.534-1.178
			c0.168-0.084,0.6,0,0.783,0c0.486,0,0.973,0,1.459,0c3.502,0,7.003,0,10.505,0c4.117,0,8.234,0,12.351,0c1.523,0,3.045,0,4.568,0
			c0.481,0,0.962,0,1.443,0c0.172,0,0.606-0.082,0.763,0c0.268,0.14,0.411,0.88,0.525,1.178c0.523,1.368,1.046,2.735,1.569,4.103
			c1.483,3.878,2.966,7.756,4.449,11.634C728.096,271.135,728.875,273.172,729.654,275.209z"/>
	</g>
	<g id="POLYLINE_2626_">
		
			<path fill="none" stroke="#F368E0" stroke-width="2.25" stroke-linecap="round" stroke-linejoin="round" stroke-miterlimit="10" d="
			M78.176,174.137c0.107-2.454,1.151-4.55,3.483-5.523c1.883-0.785,3.919-0.813,5.927-0.81c1.087,0.002,2.174,0.004,3.261,0.006
			c2.008,0.003,4.016,0.007,6.025,0.01c2.882,0.005,5.764,0.01,8.646,0.015c3.728,0.006,7.456,0.013,11.185,0.019
			c4.482,0.008,8.963,0.015,13.445,0.023c5.218,0.009,10.437,0.018,15.655,0.027c5.893,0.01,11.785,0.02,17.678,0.03
			c6.496,0.011,12.993,0.022,19.489,0.033c7.106,0.012,14.213,0.024,21.319,0.036c7.586,0.013,15.172,0.026,22.757,0.039
			c8.076,0.014,16.152,0.027,24.228,0.041c8.494,0.014,16.989,0.029,25.483,0.043c8.836,0.015,17.672,0.03,26.509,0.045
			c9.203,0.016,18.406,0.031,27.609,0.047c9.416,0.016,18.831,0.032,28.247,0.048c9.656,0.016,19.311,0.033,28.967,0.049
			c9.818,0.017,19.637,0.033,29.455,0.05c9.902,0.017,19.803,0.034,29.705,0.05c10.018,0.017,20.036,0.034,30.054,0.051
			c9.971,0.017,19.942,0.034,29.913,0.051c9.957,0.017,19.914,0.034,29.871,0.051c9.864,0.017,19.728,0.033,29.592,0.05
			c9.693,0.016,19.385,0.033,29.078,0.049c9.551,0.016,19.103,0.032,28.654,0.049c9.252,0.016,18.504,0.031,27.755,0.047
			c8.981,0.015,17.961,0.03,26.942,0.046c8.632,0.015,17.263,0.029,25.895,0.044c8.209,0.014,16.418,0.028,24.627,0.042
			c7.803,0.013,15.606,0.026,23.409,0.04c7.258,0.012,14.516,0.025,21.775,0.037c6.708,0.011,13.416,0.023,20.123,0.034
			c6.139,0.01,12.279,0.021,18.418,0.031c5.451,0.009,10.902,0.018,16.353,0.028c4.773,0.008,9.546,0.016,14.319,0.024
			c3.99,0.007,7.98,0.014,11.97,0.02c3.185,0.005,6.371,0.011,9.556,0.016c2.341,0.004,4.681,0.008,7.022,0.012
			c1.419,0.002,2.837,0.005,4.256,0.007c0.462,0.001,0.924,0.002,1.386,0.002"/>
	</g>
</g>
<g id="AG-OUTLINE">
	<g id="POLYLINE_233_">
		<path fill="none" stroke="#F368E0" stroke-width="3" stroke-linecap="round" stroke-linejoin="round" stroke-miterlimit="10" d="
			M345.027,344.048c0.002,1.381-0.575,4.132,1.499,4.29c0.255,0.019,0.519,0,0.775,0c1.719,0,3.438,0,5.157,0
			c3.162,0,6.324,0,9.486,0c4.432,0,8.865,0,13.297,0c5.547,0,11.095,0,16.642,0c6.449,0,12.899,0,19.348,0
			c7.193,0,14.386,0,21.579,0c7.788,0,15.575,0,23.363,0c8.182,0,16.364,0,24.546,0c8.371,0,16.742,0,25.114,0
			c8.412,0,16.823,0,25.235,0c8.304,0,16.608,0,24.911,0c7.965,0,15.929,0,23.894,0c7.478,0,14.956,0,22.434,0
			c6.838,0,13.675,0,20.513,0c5.994,0,11.988,0,17.982,0c4.958,0,9.917,0,14.875,0c3.769,0,7.537,0,11.306,0
			c2.409,0,4.818,0,7.228,0c0.85,0,1.725,0.059,2.574,0c2.104-0.146,1.521-2.885,1.521-4.29c0.599,0.01,1.199,0.02,1.798,0.029
			c0.344,0.006,1.396-0.149,1.644,0.066c0.25,0.217,0.385,1.221,0.501,1.55c0.194,0.554,0.403,1.103,0.626,1.646
			c0.874,2.129,1.972,4.164,3.266,6.067c2.624,3.856,6.066,7.141,10.037,9.586c3.808,2.345,8.084,3.905,12.506,4.567
			c4.152,0.621,8.429,0.439,12.515-0.527c4.309-1.019,8.404-2.906,11.976-5.523c3.673-2.691,6.779-6.136,9.073-10.07
			c0.569-0.977,1.088-1.982,1.555-3.012c0.435-0.96,0.681-2.125,1.198-3.03c0.192-0.336-0.006-0.171,0.295-0.253
			c0.277-0.075,0.686,0.011,0.973,0.016c0.798,0.013,1.607-0.013,2.404,0.039c0.506,0.033,0.38,0.096,0.41,0.593
			c0.016,0.27,0.043,0.539,0.088,0.805c0.343,2.058,1.777,3.163,3.818,3.18c2.057,0.017,4.114,0,6.171,0c4.514,0,9.029,0,13.543,0
			c6.171,0,12.342,0,18.513,0c6.946,0,13.892,0,20.837,0c6.939,0,13.878,0,20.817,0c6.045,0,12.09,0,18.134,0
			c4.362,0,8.723,0,13.085,0c1.811,0,3.623-0.003,5.434,0c1.947,0.003,3.904,0.159,5.847-0.014c2.442-0.218,4.877-0.597,7.309-0.902
			c4.61-0.579,9.217-1.18,13.817-1.829c1.349-0.19,3.117-0.251,4.286-1.062c0.957-0.665,1.42-1.97,1.7-3.048
			c0.475-1.83,0.42-3.733,0.362-5.607c-0.024-0.777,0.029-1.625-0.165-2.387c-0.15-0.589-0.418-1.111-0.509-1.719
			c-0.101-0.675-0.062-1.472-0.352-2.111c-0.274-0.604-0.816-0.628-1.409-0.629c0.232-4.223,0.474-8.446,0.621-12.673
			c0.154-4.399,0.274-8.801,0.354-13.202c0.08-4.359,0.128-8.719,0.146-13.078c0.018-4.394,0.023-8.789-0.064-13.182
			c-0.086-4.381-0.272-8.757-0.513-13.131c-0.23-4.178-0.555-8.352-0.91-12.522c-0.373-4.384-0.792-8.762-1.26-13.137
			c-0.458-4.289-0.963-8.571-1.528-12.847c-0.581-4.403-1.206-8.801-1.929-13.183c-0.704-4.27-1.506-8.525-2.411-12.757
			c-0.213-0.997-0.438-1.992-0.657-2.988c5.763-0.129,11.525-0.259,17.288-0.388c0.827-0.019,1.655-0.037,2.482-0.056
			c-1.468,0.422-2.896,1.058-4.174,1.897c-0.25,0.164-0.495,0.337-0.734,0.517c-0.354,0.266-0.529,0.295-0.383,0.73
			c0.133,0.394,0.396,0.769,0.608,1.122c0.838,1.399,1.715,2.786,2.624,4.141c0.454,0.676,1.085,1.735,2.024,1.663
			c0.324-0.025,0.628-0.188,0.901-0.352c0.345-0.208,0.526-0.522,0.791-0.058c0.129,0.225,0.164,0.58,0.234,0.826
			c0.196,0.691,0.391,1.381,0.587,2.072c1.272,4.488,2.544,8.975,3.815,13.463c0.381,1.344,0.702,2.725,1.147,4.049
			c0.261,0.777,0.849,1.355,1.706,1.32c1.003-0.04,2.039-0.547,2.939-0.931c1.125-0.479,2.317-0.983,3.326-1.684
			c1.668-1.16,0.861-3.174,0.412-4.758c-1.237-4.364-2.473-8.728-3.71-13.091c-0.238-0.838-0.475-1.677-0.713-2.515
			c-0.113-0.398-0.367-0.917-0.378-1.333c-0.021-0.777,0.301-1.4,0.029-2.218c-0.176-0.529-0.639-0.679-0.913-1.123
			c-0.233-0.378-0.162-0.77-0.049-1.178c0.242-0.875,0.811-1.861-0.078-2.55c-0.26-0.201-0.58-0.337-0.881-0.463
			c0.452-0.487,0.361-1.697,0.24-2.278c-0.097-0.469-0.417-0.693-0.87-0.752c-1.443-0.189-2.997-0.067-4.45-0.1
			c-5.875-0.132-11.75-0.264-17.624-0.396c-1.581-0.036-3.163-0.071-4.744-0.107c0.163-6.646,0.327-13.293,0.49-19.939
			c0.034-1.392,0.387-3.344-0.179-4.687c-0.843-2-3.91-1.567-5.621-1.653c-1.698-0.086-3.404-0.229-5.104-0.256
			c-0.817-0.013-1.719,0.134-2.228,0.846c-1.803-1.405-4.025-1.574-6.226-1.578c-3.992-0.007-7.984-0.014-11.976-0.02
			c-7.277-0.012-14.554-0.025-21.831-0.037c-9.243-0.016-18.487-0.031-27.73-0.047c-9.802-0.017-19.605-0.033-29.407-0.05
			c-9.034-0.015-18.068-0.031-27.101-0.046c-6.914-0.012-13.827-0.023-20.741-0.035c-3.442-0.006-6.884-0.012-10.326-0.018
			c-0.109,0-0.378,0.052-0.479-0.001c-0.618-0.322-0.715-1.619-1.326-1.958c-0.071-0.039-0.192,0.002-0.274-0.012
			c-0.668-0.119-1.468-0.003-2.144-0.004c-1.324-0.002-2.648-0.005-3.972-0.007c-8.748-0.015-17.496-0.031-26.244-0.046
			c-8.214-0.015-16.428-0.029-24.642-0.044c-1.022-0.002-2.043-0.004-3.065-0.005c-0.28,0-0.812-0.099-1.057,0.027
			c-0.623,0.32-0.727,1.687-1.383,1.941c-0.126,0.049-0.371-0.001-0.505-0.001c-2.187-0.004-4.374-0.007-6.562-0.011
			c-4.346-0.007-8.692-0.015-13.037-0.022c-6.148-0.01-12.296-0.021-18.444-0.031c-7.593-0.013-15.187-0.026-22.78-0.039
			c-8.682-0.015-17.365-0.029-26.047-0.044c-9.415-0.016-18.83-0.032-28.244-0.048c-9.791-0.017-19.581-0.033-29.372-0.05
			c-9.81-0.017-19.62-0.033-29.43-0.05c-9.499-0.016-18.998-0.032-28.497-0.048c-8.777-0.015-17.553-0.03-26.33-0.045
			c-7.746-0.013-15.491-0.026-23.237-0.039c-6.313-0.011-12.626-0.021-18.939-0.032c-4.548-0.008-9.095-0.015-13.643-0.023
			c-2.426-0.004-4.851-0.008-7.277-0.012c-0.272,0-0.723,0.078-0.949-0.047c-0.601-0.335-0.698-1.604-1.306-1.924
			c-0.079-0.041-0.257,0.008-0.344-0.001c-0.744-0.076-1.534-0.003-2.281-0.004c-7.698-0.014-15.396-0.027-23.094-0.041
			c-9.068-0.016-18.136-0.032-27.204-0.048c-2.5-0.004-5.001-0.009-7.501-0.013c-0.444-0.001-0.755-0.083-1.06,0.17
			c-0.55,0.456-0.694,1.597-1.378,1.798c-0.273,0.08-0.696-0.001-0.978-0.002c-0.597-0.001-1.194-0.002-1.791-0.003
			c-1.952-0.003-3.904-0.007-5.856-0.01c-6.38-0.011-12.76-0.022-19.139-0.032c-8.663-0.015-17.325-0.029-25.988-0.044
			c-9.724-0.016-19.448-0.033-29.171-0.049c-9.563-0.016-19.126-0.032-28.69-0.049c-8.181-0.014-16.362-0.028-24.543-0.042
			c-5.577-0.009-11.154-0.019-16.731-0.028c-1.435-0.002-2.871-0.005-4.306-0.007c-0.239,0-0.694,0.089-0.919-0.002
			c-0.422-0.171-0.649-1.312-0.86-1.776c-1.247-2.756-3.271-6.1-6.6-6.49c-1.994-0.234-4.1-0.037-6.101-0.037
			c-4.683,0-9.367,0-14.05,0c-1.926,0-3.852,0-5.778,0c-0.651,0-1.303,0-1.954,0c-0.252,0-0.839-0.113-1.071,0
			c-0.214,0.104-0.143,0.086-0.143,0.451c0,0.919,0,1.838,0,2.757c0,1.677,0,3.355,0,5.032c-7.315-0.012-14.631-0.059-21.945-0.037
			c-3.001,0.009-6.105,0.518-7.707,3.324c-0.92,1.611-0.935,3.61-1.123,5.404c-0.333,3.173-0.431,6.385-0.583,9.572
			c-0.381,8.003-0.65,16.009-0.941,24.016c-0.194,5.337-0.317,10.676-0.458,16.015c-0.259,9.798-0.518,19.595-0.776,29.393
			c-0.104,3.949-0.169,7.895-0.221,11.845c-0.129,9.915-0.258,19.831-0.387,29.746c-0.054,4.162-0.108,8.324-0.162,12.486
			c-0.015,1.137-0.03,2.273-0.044,3.41c-0.002,0.119,0.067,0.584-0.009,0.685c-0.097,0.13-0.642,0.06-0.876,0.17
			c-0.796,0.374-0.683,1.221-0.683,1.945c0,2.009,0,4.018,0,6.027c0,4.41,0,8.819,0,13.229c0,1.536,0.111,2.902,1.132,4.143
			c0.91,1.107,2.207,1.887,3.553,2.344c1.319,0.447,2.747,0.55,4.122,0.729c3.132,0.409,6.263,0.818,9.395,1.226
			c10.043,1.311,20.086,2.622,30.129,3.933c7.781,1.016,15.562,2.031,23.342,3.047c3.17,0.414,6.318,0.574,9.513,0.574
			c5.894,0,11.789,0,17.683,0c9.653,0,19.307,0,28.96,0c10.583,0,21.166,0,31.749,0c8.491,0,16.982,0,25.474,0
			c3.554,0,7.119,0.079,10.673,0c0.961-0.021,1.9-0.291,2.423-1.163c0.534-0.89,0.457-1.981,0.457-2.974
			c0.919,0.004,1.837,0.007,2.756,0.011c0.453,0.002,1.036-0.094,1.476,0.006c0.366,0.083,0.31,0.135,0.432,0.541
			c0.475,1.577,1.07,3.117,1.774,4.605c1.174,2.483,2.66,4.819,4.41,6.937c3.492,4.228,8.033,7.561,13.115,9.621
			c5.795,2.348,12.235,3.027,18.388,1.91c6.419-1.165,12.428-4.246,17.125-8.774c2.41-2.323,4.461-5.012,6.07-7.947
			c0.784-1.429,1.46-2.916,2.025-4.444c0.13-0.352,0.254-0.706,0.372-1.063c0.073-0.22,0.191-1.03,0.357-1.133
			c0.14-0.087,0.581,0.002,0.751,0.003c0.614,0.002,1.229,0.005,1.843,0.007C343.407,344.042,344.217,344.045,345.027,344.048z"/>
	</g>
	<g id="POLYLINE_52_">
		<path fill="none" stroke="#F368E0" stroke-width="3" stroke-linecap="round" stroke-linejoin="round" stroke-miterlimit="10" d="
			M341.331,334.721c-0.03-3.424-0.525-6.821-1.571-10.086c-1.025-3.199-2.527-6.233-4.456-8.984c-1.963-2.8-4.365-5.293-7.088-7.36
			c-2.696-2.047-5.704-3.677-8.891-4.818c-3.18-1.138-6.532-1.788-9.908-1.918c-3.424-0.132-6.87,0.268-10.17,1.189
			c-3.236,0.903-6.322,2.294-9.145,4.116c-2.869,1.852-5.448,4.159-7.615,6.798c-2.153,2.622-3.902,5.577-5.161,8.727
			c-1.255,3.14-2.026,6.463-2.284,9.835c-0.261,3.409,0.015,6.861,0.807,10.187c0.785,3.293,2.075,6.462,3.814,9.366
			c1.735,2.898,3.913,5.528,6.44,7.77c2.562,2.274,5.48,4.152,8.615,5.535c3.074,1.356,6.342,2.239,9.679,2.623
			c3.393,0.39,6.85,0.243,10.199-0.422c3.328-0.66,6.554-1.834,9.527-3.47c2.963-1.63,5.667-3.71,8.006-6.152
			c2.365-2.469,4.343-5.312,5.84-8.385c1.483-3.043,2.497-6.31,2.996-9.659C341.209,337.991,341.317,336.36,341.331,334.721z"/>
	</g>
	<g id="POLYLINE_51_">
		<path fill="none" stroke="#F368E0" stroke-width="3" stroke-linecap="round" stroke-linejoin="round" stroke-miterlimit="10" d="
			M746.765,334.721c-0.03-3.424-0.525-6.821-1.571-10.086c-1.025-3.199-2.527-6.233-4.456-8.984c-1.963-2.8-4.365-5.293-7.088-7.36
			c-2.696-2.047-5.704-3.677-8.891-4.818c-3.18-1.138-6.532-1.788-9.908-1.918c-3.424-0.132-6.87,0.268-10.17,1.189
			c-3.236,0.903-6.322,2.294-9.145,4.116c-2.869,1.852-5.448,4.159-7.615,6.798c-2.153,2.622-3.902,5.577-5.161,8.727
			c-1.255,3.14-2.026,6.463-2.284,9.835c-0.261,3.409,0.015,6.861,0.807,10.187c0.785,3.293,2.075,6.462,3.814,9.366
			c1.735,2.898,3.914,5.528,6.44,7.77c2.562,2.274,5.48,4.152,8.615,5.535c3.074,1.356,6.342,2.239,9.679,2.623
			c3.393,0.39,6.85,0.243,10.199-0.422c3.328-0.66,6.554-1.834,9.527-3.47c2.963-1.63,5.667-3.71,8.006-6.152
			c2.365-2.469,4.342-5.312,5.84-8.385c1.483-3.043,2.497-6.31,2.996-9.659C746.642,337.991,746.75,336.36,746.765,334.721z"/>
	</g>
</g>
</svg>
