<?xml version="1.0" encoding="iso-8859-1"?>
<!-- Generator: Adobe Illustrator 19.0.0, SVG Export Plug-In . SVG Version: 6.00 Build 0)  -->
<svg version="1.1" id="Layer_1" xmlns="http://www.w3.org/2000/svg" xmlns:xlink="http://www.w3.org/1999/xlink" x="0px" y="0px"
	 viewBox="0 0 512 512" style="enable-background:new 0 0 512 512;" xml:space="preserve">
<g>
	<g>
		<path d="M417.424,102.699h-39.519c-6.12,0-11.082,4.963-11.082,11.082c0,6.12,4.963,11.082,11.082,11.082h28.437v159.241h-139.26
			V124.864h69.63c6.12,0,11.082-4.963,11.082-11.082c0-6.12-4.963-11.082-11.082-11.082H94.576c-6.12,0-11.082,4.963-11.082,11.082
			v79.393c0,0.003,0,0.008,0,0.011v66.226c0,0.003,0,0.008,0,0.011v35.762c0,6.12,4.963,11.082,11.082,11.082h150.342v37.393
			c0,6.12,4.963,11.082,11.082,11.082s11.082-4.963,11.082-11.082v-37.391h150.342c6.12,0,11.082-4.963,11.082-11.082V113.782
			C428.506,107.661,423.545,102.699,417.424,102.699z M105.658,124.864h41.562l-41.562,41.562V124.864z M244.918,284.105h-139.26
			v-20.095l76.015-76.014c4.328-4.328,4.328-11.345,0-15.674c-4.328-4.325-11.343-4.327-15.674,0l-60.342,60.343v-34.893
			l72.908-72.908h66.352V284.105z"/>
	</g>
</g>
<g>
	<g>
		<path d="M308.231,60.775H203.758c-6.12,0-11.082,4.963-11.082,11.082s4.963,11.082,11.082,11.082h104.472
			c6.12,0,11.082-4.963,11.082-11.082S314.35,60.775,308.231,60.775z"/>
	</g>
</g>
<g>
	<g>
		<path d="M119.688,332.578c-19.958,0-36.195,16.237-36.195,36.195c0,19.958,16.237,36.195,36.195,36.195
			c19.958,0,36.195-16.237,36.195-36.195C155.883,348.815,139.646,332.578,119.688,332.578z M119.688,382.803
			c-7.735,0-14.03-6.295-14.03-14.03s6.295-14.03,14.03-14.03s14.03,6.295,14.03,14.03S127.424,382.803,119.688,382.803z"/>
	</g>
</g>
<g>
	<g>
		<path d="M392.312,332.578c-19.958,0-36.195,16.237-36.195,36.195c0,19.958,16.237,36.195,36.195,36.195
			c19.958,0,36.195-16.237,36.195-36.195C428.506,348.815,412.27,332.578,392.312,332.578z M392.312,382.803
			c-7.735,0-14.03-6.295-14.03-14.03s6.295-14.03,14.03-14.03s14.03,6.295,14.03,14.03S400.047,382.803,392.312,382.803z"/>
	</g>
</g>
<g>
	<g>
		<path d="M467.671,121.517h-1.54v-3.181c0-56.617-46.061-102.677-102.677-102.677H148.547
			c-56.617,0-102.677,46.061-102.677,102.677v3.181h-1.54C19.886,121.517,0,141.403,0,165.846v47.377
			c0,15.534,12.633,28.171,28.16,28.171h17.709v148.192c0,28.538,21.705,52.097,49.472,55.05v15.5
			c0,19.965,16.241,36.206,36.206,36.206c19.958,0,36.195-16.241,36.195-36.206v-15.183h176.517v15.183
			c0,19.965,16.237,36.206,36.195,36.206c19.965,0,36.206-16.241,36.206-36.206v-15.5c27.768-2.953,49.472-26.512,49.472-55.05
			V241.394h17.708c15.527,0,28.16-12.637,28.16-28.171v-47.377C512,141.404,492.114,121.517,467.671,121.517z M45.869,219.229H28.16
			c-3.306,0-5.995-2.694-5.995-6.007v-47.377c0-12.221,9.943-22.164,22.164-22.164h1.54V219.229z M145.576,460.135
			c0,7.742-6.295,14.041-14.03,14.041c-7.742,0-14.041-6.299-14.041-14.041v-14.03h28.071V460.135z M394.495,460.135
			c0,7.742-6.299,14.041-14.041,14.041c-7.735,0-14.03-6.299-14.03-14.041v-14.03h28.071V460.135z M443.966,132.599v97.712v159.274
			c0,18.308-14.895,33.202-33.202,33.202H101.236c-18.308,0-33.202-14.895-33.202-33.202V230.311v-97.712v-14.263
			c0-44.396,36.118-80.513,80.513-80.513h214.907c44.395,0,80.513,36.118,80.513,80.513V132.599z M489.836,213.223
			c0,3.311-2.69,6.007-5.996,6.007h-17.709v-75.548h1.54c12.221,0,22.164,9.943,22.164,22.164V213.223z"/>
	</g>
</g>
<g>
</g>
<g>
</g>
<g>
</g>
<g>
</g>
<g>
</g>
<g>
</g>
<g>
</g>
<g>
</g>
<g>
</g>
<g>
</g>
<g>
</g>
<g>
</g>
<g>
</g>
<g>
</g>
<g>
</g>
</svg>
